G04*
G04 #@! TF.GenerationSoftware,Altium Limited,Altium Designer,24.5.2 (23)*
G04*
G04 Layer_Color=8388736*
%FSLAX25Y25*%
%MOIN*%
G70*
G04*
G04 #@! TF.SameCoordinates,203F89A4-B1B2-41DF-AC4B-4AFD0BA2CC77*
G04*
G04*
G04 #@! TF.FilePolarity,Negative*
G04*
G01*
G75*
G04:AMPARAMS|DCode=12|XSize=23.75mil|YSize=47.37mil|CornerRadius=0mil|HoleSize=0mil|Usage=FLASHONLY|Rotation=45.000|XOffset=0mil|YOffset=0mil|HoleType=Round|Shape=Rectangle|*
%AMROTATEDRECTD12*
4,1,4,0.00835,-0.02514,-0.02514,0.00835,-0.00835,0.02514,0.02514,-0.00835,0.00835,-0.02514,0.0*
%
%ADD12ROTATEDRECTD12*%

%ADD13C,0.03162*%
%ADD14O,0.08674X0.04343*%
%ADD15O,0.07493X0.04343*%
G04:AMPARAMS|DCode=16|XSize=94.61mil|YSize=53.28mil|CornerRadius=0mil|HoleSize=0mil|Usage=FLASHONLY|Rotation=135.000|XOffset=0mil|YOffset=0mil|HoleType=Round|Shape=Round|*
%AMOVALD16*
21,1,0.04134,0.05328,0.00000,0.00000,135.0*
1,1,0.05328,0.01462,-0.01462*
1,1,0.05328,-0.01462,0.01462*
%
%ADD16OVALD16*%

D12*
X344740Y114644D02*
D03*
X346605Y116509D02*
D03*
X348471Y118375D02*
D03*
X350336Y120240D02*
D03*
X352201Y122105D02*
D03*
X354066Y123970D02*
D03*
X355931Y125836D02*
D03*
X357797Y127701D02*
D03*
X350865Y108520D02*
D03*
X352730Y110385D02*
D03*
X354595Y112250D02*
D03*
X356460Y114115D02*
D03*
X358326Y115981D02*
D03*
X360191Y117846D02*
D03*
X362056Y119711D02*
D03*
X363921Y121576D02*
D03*
X187260Y114644D02*
D03*
X189125Y116509D02*
D03*
X190990Y118375D02*
D03*
X192856Y120240D02*
D03*
X194721Y122105D02*
D03*
X196586Y123970D02*
D03*
X198451Y125836D02*
D03*
X200316Y127701D02*
D03*
X193385Y108520D02*
D03*
X195250Y110385D02*
D03*
X197115Y112250D02*
D03*
X198980Y114115D02*
D03*
X200845Y115981D02*
D03*
X202711Y117846D02*
D03*
X204576Y119711D02*
D03*
X206441Y121576D02*
D03*
X659701Y114644D02*
D03*
X661566Y116509D02*
D03*
X663431Y118375D02*
D03*
X665297Y120240D02*
D03*
X667162Y122105D02*
D03*
X669027Y123970D02*
D03*
X670892Y125836D02*
D03*
X672757Y127701D02*
D03*
X665825Y108520D02*
D03*
X667691Y110385D02*
D03*
X669556Y112250D02*
D03*
X671421Y114115D02*
D03*
X673286Y115981D02*
D03*
X675151Y117846D02*
D03*
X677017Y119711D02*
D03*
X678882Y121576D02*
D03*
X502220Y114644D02*
D03*
X504086Y116509D02*
D03*
X505951Y118375D02*
D03*
X507816Y120240D02*
D03*
X509681Y122105D02*
D03*
X511547Y123970D02*
D03*
X513412Y125836D02*
D03*
X515277Y127701D02*
D03*
X508345Y108520D02*
D03*
X510210Y110385D02*
D03*
X512076Y112250D02*
D03*
X513941Y114115D02*
D03*
X515806Y115981D02*
D03*
X517671Y117846D02*
D03*
X519536Y119711D02*
D03*
X521402Y121576D02*
D03*
D13*
X109370Y106732D02*
D03*
Y129488D02*
D03*
D14*
X111299Y101083D02*
D03*
Y135138D02*
D03*
D15*
X94882Y101083D02*
D03*
Y135138D02*
D03*
D16*
X344072Y107852D02*
D03*
X364589Y128369D02*
D03*
X186592Y107852D02*
D03*
X207109Y128369D02*
D03*
X659033Y107852D02*
D03*
X679550Y128369D02*
D03*
X501552Y107852D02*
D03*
X522070Y128369D02*
D03*
M02*
