G04*
G04 #@! TF.GenerationSoftware,Altium Limited,Altium Designer,24.5.2 (23)*
G04*
G04 Layer_Color=32896*
%FSLAX25Y25*%
%MOIN*%
G70*
G04*
G04 #@! TF.SameCoordinates,203F89A4-B1B2-41DF-AC4B-4AFD0BA2CC77*
G04*
G04*
G04 #@! TF.FilePolarity,Positive*
G04*
G01*
G75*
%ADD10C,0.00600*%
%ADD17C,0.01500*%
%ADD18C,0.01000*%
%ADD35C,0.00500*%
%ADD39C,0.00787*%
%ADD40R,3.94882X0.16929*%
%ADD41R,3.94882X0.02756*%
%ADD42R,0.03150X0.03150*%
D10*
X300394Y145669D02*
G03*
X300394Y145669I-1181J0D01*
G01*
X457874D02*
G03*
X457874Y145669I-1181J0D01*
G01*
X615354D02*
G03*
X615354Y145669I-1181J0D01*
G01*
X650787Y131890D02*
G03*
X650787Y131890I-1181J0D01*
G01*
Y104331D02*
G03*
X650787Y104331I-1181J0D01*
G01*
X493307Y131890D02*
G03*
X493307Y131890I-1181J0D01*
G01*
Y104331D02*
G03*
X493307Y104331I-1181J0D01*
G01*
X335827Y131890D02*
G03*
X335827Y131890I-1181J0D01*
G01*
Y104331D02*
G03*
X335827Y104331I-1181J0D01*
G01*
X129134Y96457D02*
G03*
X129134Y96457I-1181J0D01*
G01*
X178347Y104331D02*
G03*
X178347Y104331I-1181J0D01*
G01*
Y131890D02*
G03*
X178347Y131890I-1181J0D01*
G01*
X641339Y119685D02*
G03*
X641339Y116535I0J-1575D01*
G01*
X483858Y119685D02*
G03*
X483858Y116535I0J-1575D01*
G01*
X326378Y119685D02*
G03*
X326378Y116535I0J-1575D01*
G01*
X168898Y119685D02*
G03*
X168898Y116535I0J-1575D01*
G01*
X298031Y134646D02*
X300394Y137008D01*
X298031D02*
X300394Y134646D01*
X455512D02*
X457874Y137008D01*
X455512D02*
X457874Y134646D01*
X612992Y137008D02*
X615354Y134646D01*
X612992D02*
X615354Y137008D01*
X628346Y110630D02*
Y111417D01*
X629134Y111024D01*
X628346Y110630D02*
X629134Y111024D01*
X470866Y110630D02*
Y111417D01*
X471654Y111024D01*
X470866Y110630D02*
X471654Y111024D01*
X313386Y110630D02*
Y111417D01*
X314173Y111024D01*
X313386Y110630D02*
X314173Y111024D01*
X155905Y110630D02*
X156693Y111024D01*
X155905Y111417D02*
X156693Y111024D01*
X155905Y110630D02*
Y111417D01*
X120866Y97638D02*
X123228Y95276D01*
X120866D02*
X123228Y97638D01*
X648425Y99606D02*
X650787Y97244D01*
X648425D02*
X650787Y99606D01*
X490945D02*
X493307Y97244D01*
X490945D02*
X493307Y99606D01*
X333465D02*
X335827Y97244D01*
X333465D02*
X335827Y99606D01*
X175984Y97244D02*
X178347Y99606D01*
X175984D02*
X178347Y97244D01*
X630315Y114961D02*
Y121260D01*
X641339Y119685D02*
Y121260D01*
Y114961D02*
Y116535D01*
X472835Y114961D02*
Y121260D01*
X483858Y119685D02*
Y121260D01*
Y114961D02*
Y116535D01*
X315354Y114961D02*
Y121260D01*
X326378Y119685D02*
Y121260D01*
Y114961D02*
Y116535D01*
X157874Y114961D02*
Y121260D01*
X168898Y119685D02*
Y121260D01*
Y114961D02*
Y116535D01*
X629582Y106431D02*
X630260D01*
X629582Y102231D02*
X630260D01*
X472102Y106431D02*
X472780D01*
X472102Y102231D02*
X472780D01*
X314621Y106431D02*
X315300D01*
X314621Y102231D02*
X315300D01*
X157141Y106431D02*
X157819D01*
X157141Y102231D02*
X157819D01*
X130053Y147299D02*
Y147977D01*
X125853Y147299D02*
Y147977D01*
X124147Y147299D02*
Y147977D01*
X119947Y147299D02*
Y147977D01*
X647769Y117771D02*
Y118449D01*
X643569Y117771D02*
Y118449D01*
X490289Y117771D02*
Y118449D01*
X486089Y117771D02*
Y118449D01*
X332809Y117771D02*
Y118449D01*
X328609Y117771D02*
Y118449D01*
X175328Y117771D02*
Y118449D01*
X171128Y117771D02*
Y118449D01*
X142245Y144975D02*
Y158175D01*
X133345Y144975D02*
Y158175D01*
X641393Y133990D02*
X642071D01*
X641393Y129790D02*
X642071D01*
X483913Y133990D02*
X484591D01*
X483913Y129790D02*
X484591D01*
X326432Y133990D02*
X327111D01*
X326432Y129790D02*
X327111D01*
X168952Y133990D02*
X169631D01*
X168952Y129790D02*
X169631D01*
X641393Y106431D02*
X642071D01*
X641393Y102231D02*
X642071D01*
X641393Y100525D02*
X642071D01*
X641393Y96325D02*
X642071D01*
X483913Y106431D02*
X484591D01*
X483913Y102231D02*
X484591D01*
X483913Y100525D02*
X484591D01*
X483913Y96325D02*
X484591D01*
X326432Y106431D02*
X327111D01*
X326432Y102231D02*
X327111D01*
X326432Y100525D02*
X327111D01*
X326432Y96325D02*
X327111D01*
X168952Y106431D02*
X169631D01*
X168952Y102231D02*
X169631D01*
X168952Y100525D02*
X169631D01*
X168952Y96325D02*
X169631D01*
X142913Y81102D02*
Y85827D01*
X132677Y81102D02*
Y85827D01*
X119947Y88244D02*
Y88922D01*
X124147Y88244D02*
Y88922D01*
X125853Y88244D02*
Y88922D01*
X130053Y88244D02*
Y88922D01*
X294676Y143513D02*
X293364D01*
X294020D01*
Y147449D01*
X294676Y146793D01*
X291396D02*
X290740Y147449D01*
X289428D01*
X288772Y146793D01*
Y144169D01*
X289428Y143513D01*
X290740D01*
X291396Y144169D01*
Y146793D01*
X287460D02*
X286804Y147449D01*
X285492D01*
X284836Y146793D01*
Y144169D01*
X285492Y143513D01*
X286804D01*
X287460Y144169D01*
Y146793D01*
X283524Y143513D02*
Y146137D01*
X281557D01*
X280901Y145481D01*
Y143513D01*
X276965Y147449D02*
X279589D01*
Y145481D01*
X278277D01*
X279589D01*
Y143513D01*
X294676Y127895D02*
X294020Y128551D01*
X292708D01*
X292052Y127895D01*
Y127240D01*
X292708Y126584D01*
X293364D01*
X292708D01*
X292052Y125928D01*
Y125272D01*
X292708Y124616D01*
X294020D01*
X294676Y125272D01*
X288772Y124616D02*
Y128551D01*
X290740Y126584D01*
X288116D01*
X286804Y127895D02*
X286148Y128551D01*
X284836D01*
X284180Y127895D01*
Y127240D01*
X284836Y126584D01*
X284180Y125928D01*
Y125272D01*
X284836Y124616D01*
X286148D01*
X286804Y125272D01*
Y125928D01*
X286148Y126584D01*
X286804Y127240D01*
Y127895D01*
X286148Y126584D02*
X284836D01*
X282868Y124616D02*
Y128551D01*
Y125928D02*
X280901Y127240D01*
X282868Y125928D02*
X280901Y124616D01*
X278933D02*
Y128551D01*
X276965D01*
X276309Y127895D01*
Y126584D01*
X276965Y125928D01*
X278933D01*
X277621D02*
X276309Y124616D01*
X269093Y125928D02*
Y126584D01*
X269749D01*
Y125928D01*
X269093D01*
X268437Y126584D01*
Y127895D01*
X269093Y128551D01*
X270405D01*
X271061Y127895D01*
Y125272D01*
X270405Y124616D01*
X268437D01*
X267125Y128551D02*
X265813D01*
X266470D01*
Y124616D01*
X267125D01*
X265813D01*
X261222Y127895D02*
X261878Y128551D01*
X263190D01*
X263846Y127895D01*
Y127240D01*
X263190Y126584D01*
X261878D01*
X261222Y125928D01*
Y125272D01*
X261878Y124616D01*
X263190D01*
X263846Y125272D01*
X257286Y128551D02*
X259910D01*
Y124616D01*
X257286D01*
X259910Y126584D02*
X258598D01*
X255974Y128551D02*
X253350D01*
X254662D01*
Y124616D01*
X252038Y125928D02*
X249415D01*
X252038Y127240D02*
X249415D01*
X248103Y124616D02*
X246791D01*
X247447D01*
Y128551D01*
X248103Y127895D01*
X244823Y124616D02*
Y125272D01*
X244167D01*
Y124616D01*
X244823D01*
X241543Y127895D02*
X240887Y128551D01*
X239575D01*
X238919Y127895D01*
Y127240D01*
X239575Y126584D01*
X238919Y125928D01*
Y125272D01*
X239575Y124616D01*
X240887D01*
X241543Y125272D01*
Y125928D01*
X240887Y126584D01*
X241543Y127240D01*
Y127895D01*
X240887Y126584D02*
X239575D01*
X237607Y124616D02*
Y127240D01*
X236296Y128551D01*
X234984Y127240D01*
Y124616D01*
Y126584D01*
X237607D01*
X294676Y134065D02*
X293364D01*
X294020D01*
Y138000D01*
X294676Y137344D01*
X291396Y136688D02*
Y134721D01*
X290740Y134065D01*
X288772D01*
Y136688D01*
X284836Y138000D02*
X287460D01*
Y136032D01*
X286148D01*
X287460D01*
Y134065D01*
X292052Y117923D02*
X294676D01*
X292052Y120547D01*
Y121203D01*
X292708Y121859D01*
X294020D01*
X294676Y121203D01*
X290740D02*
X290084Y121859D01*
X288772D01*
X288116Y121203D01*
Y118579D01*
X288772Y117923D01*
X290084D01*
X290740Y118579D01*
Y121203D01*
X286804D02*
X286148Y121859D01*
X284836D01*
X284180Y121203D01*
Y118579D01*
X284836Y117923D01*
X286148D01*
X286804Y118579D01*
Y121203D01*
X282868Y117923D02*
Y121859D01*
Y119235D02*
X280901Y120547D01*
X282868Y119235D02*
X280901Y117923D01*
X278933D02*
Y121859D01*
X276965D01*
X276309Y121203D01*
Y119891D01*
X276965Y119235D01*
X278933D01*
X277621D02*
X276309Y117923D01*
X269093Y119235D02*
Y119891D01*
X269749D01*
Y119235D01*
X269093D01*
X268437Y119891D01*
Y121203D01*
X269093Y121859D01*
X270405D01*
X271061Y121203D01*
Y118579D01*
X270405Y117923D01*
X268437D01*
X267125Y121859D02*
X265813D01*
X266470D01*
Y117923D01*
X267125D01*
X265813D01*
X261222Y121203D02*
X261878Y121859D01*
X263190D01*
X263846Y121203D01*
Y120547D01*
X263190Y119891D01*
X261878D01*
X261222Y119235D01*
Y118579D01*
X261878Y117923D01*
X263190D01*
X263846Y118579D01*
X257286Y121859D02*
X259910D01*
Y117923D01*
X257286D01*
X259910Y119891D02*
X258598D01*
X255974Y121859D02*
X253350D01*
X254662D01*
Y117923D01*
X252038Y119235D02*
X249415D01*
X252038Y120547D02*
X249415D01*
X245479Y117923D02*
X248103D01*
X245479Y120547D01*
Y121203D01*
X246135Y121859D01*
X247447D01*
X248103Y121203D01*
X244167Y117923D02*
Y118579D01*
X243511D01*
Y117923D01*
X244167D01*
X240887Y121203D02*
X240231Y121859D01*
X238919D01*
X238263Y121203D01*
Y120547D01*
X238919Y119891D01*
X238263Y119235D01*
Y118579D01*
X238919Y117923D01*
X240231D01*
X240887Y118579D01*
Y119235D01*
X240231Y119891D01*
X240887Y120547D01*
Y121203D01*
X240231Y119891D02*
X238919D01*
X236951Y117923D02*
Y120547D01*
X235640Y121859D01*
X234328Y120547D01*
Y117923D01*
Y119891D01*
X236951D01*
X294676Y111230D02*
X293364D01*
X294020D01*
Y115166D01*
X294676Y114510D01*
X288772Y115166D02*
X291396D01*
Y113198D01*
X290084Y113854D01*
X289428D01*
X288772Y113198D01*
Y111886D01*
X289428Y111230D01*
X290740D01*
X291396Y111886D01*
X287460Y114510D02*
X286804Y115166D01*
X285492D01*
X284836Y114510D01*
Y111886D01*
X285492Y111230D01*
X286804D01*
X287460Y111886D01*
Y114510D01*
X283524Y111230D02*
Y115166D01*
Y112542D02*
X281557Y113854D01*
X283524Y112542D02*
X281557Y111230D01*
X279589D02*
Y115166D01*
X277621D01*
X276965Y114510D01*
Y113198D01*
X277621Y112542D01*
X279589D01*
X278277D02*
X276965Y111230D01*
X269749Y112542D02*
Y113198D01*
X270405D01*
Y112542D01*
X269749D01*
X269093Y113198D01*
Y114510D01*
X269749Y115166D01*
X271061D01*
X271717Y114510D01*
Y111886D01*
X271061Y111230D01*
X269093D01*
X267781Y115166D02*
X266470D01*
X267125D01*
Y111230D01*
X267781D01*
X266470D01*
X261878Y114510D02*
X262534Y115166D01*
X263846D01*
X264502Y114510D01*
Y113854D01*
X263846Y113198D01*
X262534D01*
X261878Y112542D01*
Y111886D01*
X262534Y111230D01*
X263846D01*
X264502Y111886D01*
X257942Y115166D02*
X260566D01*
Y111230D01*
X257942D01*
X260566Y113198D02*
X259254D01*
X256630Y115166D02*
X254006D01*
X255318D01*
Y111230D01*
X252694Y112542D02*
X250071D01*
X252694Y113854D02*
X250071D01*
X248759Y114510D02*
X248103Y115166D01*
X246791D01*
X246135Y114510D01*
Y113854D01*
X246791Y113198D01*
X247447D01*
X246791D01*
X246135Y112542D01*
Y111886D01*
X246791Y111230D01*
X248103D01*
X248759Y111886D01*
X244823Y111230D02*
Y111886D01*
X244167D01*
Y111230D01*
X244823D01*
X238919Y115166D02*
X240231Y114510D01*
X241543Y113198D01*
Y111886D01*
X240887Y111230D01*
X239575D01*
X238919Y111886D01*
Y112542D01*
X239575Y113198D01*
X241543D01*
X237607Y111230D02*
Y113854D01*
X236296Y115166D01*
X234984Y113854D01*
Y111230D01*
Y113198D01*
X237607D01*
X452156Y143513D02*
X450844D01*
X451500D01*
Y147449D01*
X452156Y146793D01*
X448876D02*
X448220Y147449D01*
X446908D01*
X446252Y146793D01*
Y144169D01*
X446908Y143513D01*
X448220D01*
X448876Y144169D01*
Y146793D01*
X444940D02*
X444284Y147449D01*
X442973D01*
X442317Y146793D01*
Y144169D01*
X442973Y143513D01*
X444284D01*
X444940Y144169D01*
Y146793D01*
X441005Y143513D02*
Y146137D01*
X439037D01*
X438381Y145481D01*
Y143513D01*
X434445Y147449D02*
X437069D01*
Y145481D01*
X435757D01*
X437069D01*
Y143513D01*
X452156Y127895D02*
X451500Y128551D01*
X450188D01*
X449532Y127895D01*
Y127240D01*
X450188Y126584D01*
X450844D01*
X450188D01*
X449532Y125928D01*
Y125272D01*
X450188Y124616D01*
X451500D01*
X452156Y125272D01*
X446252Y124616D02*
Y128551D01*
X448220Y126584D01*
X445596D01*
X444284Y127895D02*
X443629Y128551D01*
X442317D01*
X441661Y127895D01*
Y127240D01*
X442317Y126584D01*
X441661Y125928D01*
Y125272D01*
X442317Y124616D01*
X443629D01*
X444284Y125272D01*
Y125928D01*
X443629Y126584D01*
X444284Y127240D01*
Y127895D01*
X443629Y126584D02*
X442317D01*
X440349Y124616D02*
Y128551D01*
Y125928D02*
X438381Y127240D01*
X440349Y125928D02*
X438381Y124616D01*
X436413D02*
Y128551D01*
X434445D01*
X433789Y127895D01*
Y126584D01*
X434445Y125928D01*
X436413D01*
X435101D02*
X433789Y124616D01*
X426574Y125928D02*
Y126584D01*
X427230D01*
Y125928D01*
X426574D01*
X425918Y126584D01*
Y127895D01*
X426574Y128551D01*
X427885D01*
X428542Y127895D01*
Y125272D01*
X427885Y124616D01*
X425918D01*
X424606Y128551D02*
X423294D01*
X423950D01*
Y124616D01*
X424606D01*
X423294D01*
X418702Y127895D02*
X419358Y128551D01*
X420670D01*
X421326Y127895D01*
Y127240D01*
X420670Y126584D01*
X419358D01*
X418702Y125928D01*
Y125272D01*
X419358Y124616D01*
X420670D01*
X421326Y125272D01*
X414766Y128551D02*
X417390D01*
Y124616D01*
X414766D01*
X417390Y126584D02*
X416078D01*
X413454Y128551D02*
X410831D01*
X412143D01*
Y124616D01*
X409519Y125928D02*
X406895D01*
X409519Y127240D02*
X406895D01*
X405583Y124616D02*
X404271D01*
X404927D01*
Y128551D01*
X405583Y127895D01*
X402303Y124616D02*
Y125272D01*
X401647D01*
Y124616D01*
X402303D01*
X399023Y127895D02*
X398368Y128551D01*
X397056D01*
X396400Y127895D01*
Y127240D01*
X397056Y126584D01*
X396400Y125928D01*
Y125272D01*
X397056Y124616D01*
X398368D01*
X399023Y125272D01*
Y125928D01*
X398368Y126584D01*
X399023Y127240D01*
Y127895D01*
X398368Y126584D02*
X397056D01*
X395088Y124616D02*
Y127240D01*
X393776Y128551D01*
X392464Y127240D01*
Y124616D01*
Y126584D01*
X395088D01*
X452156Y134065D02*
X450844D01*
X451500D01*
Y138000D01*
X452156Y137344D01*
X448876Y136688D02*
Y134721D01*
X448220Y134065D01*
X446252D01*
Y136688D01*
X442317Y138000D02*
X444940D01*
Y136032D01*
X443629D01*
X444940D01*
Y134065D01*
X449532Y117923D02*
X452156D01*
X449532Y120547D01*
Y121203D01*
X450188Y121859D01*
X451500D01*
X452156Y121203D01*
X448220D02*
X447564Y121859D01*
X446252D01*
X445596Y121203D01*
Y118579D01*
X446252Y117923D01*
X447564D01*
X448220Y118579D01*
Y121203D01*
X444284D02*
X443629Y121859D01*
X442317D01*
X441661Y121203D01*
Y118579D01*
X442317Y117923D01*
X443629D01*
X444284Y118579D01*
Y121203D01*
X440349Y117923D02*
Y121859D01*
Y119235D02*
X438381Y120547D01*
X440349Y119235D02*
X438381Y117923D01*
X436413D02*
Y121859D01*
X434445D01*
X433789Y121203D01*
Y119891D01*
X434445Y119235D01*
X436413D01*
X435101D02*
X433789Y117923D01*
X426574Y119235D02*
Y119891D01*
X427230D01*
Y119235D01*
X426574D01*
X425918Y119891D01*
Y121203D01*
X426574Y121859D01*
X427885D01*
X428542Y121203D01*
Y118579D01*
X427885Y117923D01*
X425918D01*
X424606Y121859D02*
X423294D01*
X423950D01*
Y117923D01*
X424606D01*
X423294D01*
X418702Y121203D02*
X419358Y121859D01*
X420670D01*
X421326Y121203D01*
Y120547D01*
X420670Y119891D01*
X419358D01*
X418702Y119235D01*
Y118579D01*
X419358Y117923D01*
X420670D01*
X421326Y118579D01*
X414766Y121859D02*
X417390D01*
Y117923D01*
X414766D01*
X417390Y119891D02*
X416078D01*
X413454Y121859D02*
X410831D01*
X412143D01*
Y117923D01*
X409519Y119235D02*
X406895D01*
X409519Y120547D02*
X406895D01*
X402959Y117923D02*
X405583D01*
X402959Y120547D01*
Y121203D01*
X403615Y121859D01*
X404927D01*
X405583Y121203D01*
X401647Y117923D02*
Y118579D01*
X400991D01*
Y117923D01*
X401647D01*
X398368Y121203D02*
X397711Y121859D01*
X396400D01*
X395744Y121203D01*
Y120547D01*
X396400Y119891D01*
X395744Y119235D01*
Y118579D01*
X396400Y117923D01*
X397711D01*
X398368Y118579D01*
Y119235D01*
X397711Y119891D01*
X398368Y120547D01*
Y121203D01*
X397711Y119891D02*
X396400D01*
X394432Y117923D02*
Y120547D01*
X393120Y121859D01*
X391808Y120547D01*
Y117923D01*
Y119891D01*
X394432D01*
X452156Y111230D02*
X450844D01*
X451500D01*
Y115166D01*
X452156Y114510D01*
X446252Y115166D02*
X448876D01*
Y113198D01*
X447564Y113854D01*
X446908D01*
X446252Y113198D01*
Y111886D01*
X446908Y111230D01*
X448220D01*
X448876Y111886D01*
X444940Y114510D02*
X444284Y115166D01*
X442973D01*
X442317Y114510D01*
Y111886D01*
X442973Y111230D01*
X444284D01*
X444940Y111886D01*
Y114510D01*
X441005Y111230D02*
Y115166D01*
Y112542D02*
X439037Y113854D01*
X441005Y112542D02*
X439037Y111230D01*
X437069D02*
Y115166D01*
X435101D01*
X434445Y114510D01*
Y113198D01*
X435101Y112542D01*
X437069D01*
X435757D02*
X434445Y111230D01*
X427230Y112542D02*
Y113198D01*
X427885D01*
Y112542D01*
X427230D01*
X426574Y113198D01*
Y114510D01*
X427230Y115166D01*
X428542D01*
X429197Y114510D01*
Y111886D01*
X428542Y111230D01*
X426574D01*
X425262Y115166D02*
X423950D01*
X424606D01*
Y111230D01*
X425262D01*
X423950D01*
X419358Y114510D02*
X420014Y115166D01*
X421326D01*
X421982Y114510D01*
Y113854D01*
X421326Y113198D01*
X420014D01*
X419358Y112542D01*
Y111886D01*
X420014Y111230D01*
X421326D01*
X421982Y111886D01*
X415422Y115166D02*
X418046D01*
Y111230D01*
X415422D01*
X418046Y113198D02*
X416734D01*
X414110Y115166D02*
X411487D01*
X412799D01*
Y111230D01*
X410175Y112542D02*
X407551D01*
X410175Y113854D02*
X407551D01*
X406239Y114510D02*
X405583Y115166D01*
X404271D01*
X403615Y114510D01*
Y113854D01*
X404271Y113198D01*
X404927D01*
X404271D01*
X403615Y112542D01*
Y111886D01*
X404271Y111230D01*
X405583D01*
X406239Y111886D01*
X402303Y111230D02*
Y111886D01*
X401647D01*
Y111230D01*
X402303D01*
X396400Y115166D02*
X397711Y114510D01*
X399023Y113198D01*
Y111886D01*
X398368Y111230D01*
X397056D01*
X396400Y111886D01*
Y112542D01*
X397056Y113198D01*
X399023D01*
X395088Y111230D02*
Y113854D01*
X393776Y115166D01*
X392464Y113854D01*
Y111230D01*
Y113198D01*
X395088D01*
X609636Y111230D02*
X608324D01*
X608980D01*
Y115166D01*
X609636Y114510D01*
X603733Y115166D02*
X606356D01*
Y113198D01*
X605045Y113854D01*
X604389D01*
X603733Y113198D01*
Y111886D01*
X604389Y111230D01*
X605700D01*
X606356Y111886D01*
X602421Y114510D02*
X601765Y115166D01*
X600453D01*
X599797Y114510D01*
Y111886D01*
X600453Y111230D01*
X601765D01*
X602421Y111886D01*
Y114510D01*
X598485Y111230D02*
Y115166D01*
Y112542D02*
X596517Y113854D01*
X598485Y112542D02*
X596517Y111230D01*
X594549D02*
Y115166D01*
X592581D01*
X591925Y114510D01*
Y113198D01*
X592581Y112542D01*
X594549D01*
X593237D02*
X591925Y111230D01*
X584710Y112542D02*
Y113198D01*
X585366D01*
Y112542D01*
X584710D01*
X584054Y113198D01*
Y114510D01*
X584710Y115166D01*
X586022D01*
X586678Y114510D01*
Y111886D01*
X586022Y111230D01*
X584054D01*
X582742Y115166D02*
X581430D01*
X582086D01*
Y111230D01*
X582742D01*
X581430D01*
X576838Y114510D02*
X577494Y115166D01*
X578806D01*
X579462Y114510D01*
Y113854D01*
X578806Y113198D01*
X577494D01*
X576838Y112542D01*
Y111886D01*
X577494Y111230D01*
X578806D01*
X579462Y111886D01*
X572903Y115166D02*
X575527D01*
Y111230D01*
X572903D01*
X575527Y113198D02*
X574215D01*
X571591Y115166D02*
X568967D01*
X570279D01*
Y111230D01*
X567655Y112542D02*
X565031D01*
X567655Y113854D02*
X565031D01*
X563719Y114510D02*
X563063Y115166D01*
X561751D01*
X561095Y114510D01*
Y113854D01*
X561751Y113198D01*
X562407D01*
X561751D01*
X561095Y112542D01*
Y111886D01*
X561751Y111230D01*
X563063D01*
X563719Y111886D01*
X559784Y111230D02*
Y111886D01*
X559128D01*
Y111230D01*
X559784D01*
X553880Y115166D02*
X555192Y114510D01*
X556504Y113198D01*
Y111886D01*
X555848Y111230D01*
X554536D01*
X553880Y111886D01*
Y112542D01*
X554536Y113198D01*
X556504D01*
X552568Y111230D02*
Y113854D01*
X551256Y115166D01*
X549944Y113854D01*
Y111230D01*
Y113198D01*
X552568D01*
X607012Y117923D02*
X609636D01*
X607012Y120547D01*
Y121203D01*
X607668Y121859D01*
X608980D01*
X609636Y121203D01*
X605700D02*
X605045Y121859D01*
X603733D01*
X603077Y121203D01*
Y118579D01*
X603733Y117923D01*
X605045D01*
X605700Y118579D01*
Y121203D01*
X601765D02*
X601109Y121859D01*
X599797D01*
X599141Y121203D01*
Y118579D01*
X599797Y117923D01*
X601109D01*
X601765Y118579D01*
Y121203D01*
X597829Y117923D02*
Y121859D01*
Y119235D02*
X595861Y120547D01*
X597829Y119235D02*
X595861Y117923D01*
X593893D02*
Y121859D01*
X591925D01*
X591269Y121203D01*
Y119891D01*
X591925Y119235D01*
X593893D01*
X592581D02*
X591269Y117923D01*
X584054Y119235D02*
Y119891D01*
X584710D01*
Y119235D01*
X584054D01*
X583398Y119891D01*
Y121203D01*
X584054Y121859D01*
X585366D01*
X586022Y121203D01*
Y118579D01*
X585366Y117923D01*
X583398D01*
X582086Y121859D02*
X580774D01*
X581430D01*
Y117923D01*
X582086D01*
X580774D01*
X576182Y121203D02*
X576838Y121859D01*
X578150D01*
X578806Y121203D01*
Y120547D01*
X578150Y119891D01*
X576838D01*
X576182Y119235D01*
Y118579D01*
X576838Y117923D01*
X578150D01*
X578806Y118579D01*
X572247Y121859D02*
X574870D01*
Y117923D01*
X572247D01*
X574870Y119891D02*
X573559D01*
X570935Y121859D02*
X568311D01*
X569623D01*
Y117923D01*
X566999Y119235D02*
X564375D01*
X566999Y120547D02*
X564375D01*
X560439Y117923D02*
X563063D01*
X560439Y120547D01*
Y121203D01*
X561095Y121859D01*
X562407D01*
X563063Y121203D01*
X559128Y117923D02*
Y118579D01*
X558472D01*
Y117923D01*
X559128D01*
X555848Y121203D02*
X555192Y121859D01*
X553880D01*
X553224Y121203D01*
Y120547D01*
X553880Y119891D01*
X553224Y119235D01*
Y118579D01*
X553880Y117923D01*
X555192D01*
X555848Y118579D01*
Y119235D01*
X555192Y119891D01*
X555848Y120547D01*
Y121203D01*
X555192Y119891D02*
X553880D01*
X551912Y117923D02*
Y120547D01*
X550600Y121859D01*
X549288Y120547D01*
Y117923D01*
Y119891D01*
X551912D01*
X609636Y134065D02*
X608324D01*
X608980D01*
Y138000D01*
X609636Y137344D01*
X606356Y136688D02*
Y134721D01*
X605700Y134065D01*
X603733D01*
Y136688D01*
X599797Y138000D02*
X602421D01*
Y136032D01*
X601109D01*
X602421D01*
Y134065D01*
X609636Y127895D02*
X608980Y128551D01*
X607668D01*
X607012Y127895D01*
Y127240D01*
X607668Y126584D01*
X608324D01*
X607668D01*
X607012Y125928D01*
Y125272D01*
X607668Y124616D01*
X608980D01*
X609636Y125272D01*
X603733Y124616D02*
Y128551D01*
X605700Y126584D01*
X603077D01*
X601765Y127895D02*
X601109Y128551D01*
X599797D01*
X599141Y127895D01*
Y127240D01*
X599797Y126584D01*
X599141Y125928D01*
Y125272D01*
X599797Y124616D01*
X601109D01*
X601765Y125272D01*
Y125928D01*
X601109Y126584D01*
X601765Y127240D01*
Y127895D01*
X601109Y126584D02*
X599797D01*
X597829Y124616D02*
Y128551D01*
Y125928D02*
X595861Y127240D01*
X597829Y125928D02*
X595861Y124616D01*
X593893D02*
Y128551D01*
X591925D01*
X591269Y127895D01*
Y126584D01*
X591925Y125928D01*
X593893D01*
X592581D02*
X591269Y124616D01*
X584054Y125928D02*
Y126584D01*
X584710D01*
Y125928D01*
X584054D01*
X583398Y126584D01*
Y127895D01*
X584054Y128551D01*
X585366D01*
X586022Y127895D01*
Y125272D01*
X585366Y124616D01*
X583398D01*
X582086Y128551D02*
X580774D01*
X581430D01*
Y124616D01*
X582086D01*
X580774D01*
X576182Y127895D02*
X576838Y128551D01*
X578150D01*
X578806Y127895D01*
Y127240D01*
X578150Y126584D01*
X576838D01*
X576182Y125928D01*
Y125272D01*
X576838Y124616D01*
X578150D01*
X578806Y125272D01*
X572247Y128551D02*
X574870D01*
Y124616D01*
X572247D01*
X574870Y126584D02*
X573559D01*
X570935Y128551D02*
X568311D01*
X569623D01*
Y124616D01*
X566999Y125928D02*
X564375D01*
X566999Y127240D02*
X564375D01*
X563063Y124616D02*
X561751D01*
X562407D01*
Y128551D01*
X563063Y127895D01*
X559784Y124616D02*
Y125272D01*
X559128D01*
Y124616D01*
X559784D01*
X556504Y127895D02*
X555848Y128551D01*
X554536D01*
X553880Y127895D01*
Y127240D01*
X554536Y126584D01*
X553880Y125928D01*
Y125272D01*
X554536Y124616D01*
X555848D01*
X556504Y125272D01*
Y125928D01*
X555848Y126584D01*
X556504Y127240D01*
Y127895D01*
X555848Y126584D02*
X554536D01*
X552568Y124616D02*
Y127240D01*
X551256Y128551D01*
X549944Y127240D01*
Y124616D01*
Y126584D01*
X552568D01*
X609636Y143513D02*
X608324D01*
X608980D01*
Y147449D01*
X609636Y146793D01*
X606356D02*
X605700Y147449D01*
X604389D01*
X603733Y146793D01*
Y144169D01*
X604389Y143513D01*
X605700D01*
X606356Y144169D01*
Y146793D01*
X602421D02*
X601765Y147449D01*
X600453D01*
X599797Y146793D01*
Y144169D01*
X600453Y143513D01*
X601765D01*
X602421Y144169D01*
Y146793D01*
X598485Y143513D02*
Y146137D01*
X596517D01*
X595861Y145481D01*
Y143513D01*
X591925Y147449D02*
X594549D01*
Y145481D01*
X593237D01*
X594549D01*
Y143513D01*
X623417Y137074D02*
X627353D01*
X625385D01*
Y134451D01*
X623417D01*
X627353D01*
X623417Y133139D02*
X626697D01*
X627353Y132483D01*
Y131171D01*
X626697Y130515D01*
X623417D01*
X624073Y126579D02*
X623417Y127235D01*
Y128547D01*
X624073Y129203D01*
X624729D01*
X625385Y128547D01*
Y127235D01*
X626041Y126579D01*
X626697D01*
X627353Y127235D01*
Y128547D01*
X626697Y129203D01*
X623417Y125267D02*
X627353D01*
Y123299D01*
X626697Y122643D01*
X626041D01*
X625385Y123299D01*
Y125267D01*
Y123299D01*
X624729Y122643D01*
X624073D01*
X623417Y123299D01*
Y125267D01*
X624073Y121332D02*
X623417Y120676D01*
Y119364D01*
X624073Y118708D01*
X624729D01*
X625385Y119364D01*
Y120020D01*
Y119364D01*
X626041Y118708D01*
X626697D01*
X627353Y119364D01*
Y120676D01*
X626697Y121332D01*
X624073Y117396D02*
X623417Y116740D01*
Y115428D01*
X624073Y114772D01*
X626697D01*
X627353Y115428D01*
Y116740D01*
X626697Y117396D01*
X624073D01*
X623417Y110836D02*
Y113460D01*
X625385D01*
X624729Y112148D01*
Y111492D01*
X625385Y110836D01*
X626697D01*
X627353Y111492D01*
Y112804D01*
X626697Y113460D01*
X465937Y137074D02*
X469872D01*
X467905D01*
Y134451D01*
X465937D01*
X469872D01*
X465937Y133139D02*
X469216D01*
X469872Y132483D01*
Y131171D01*
X469216Y130515D01*
X465937D01*
X466593Y126579D02*
X465937Y127235D01*
Y128547D01*
X466593Y129203D01*
X467249D01*
X467905Y128547D01*
Y127235D01*
X468561Y126579D01*
X469216D01*
X469872Y127235D01*
Y128547D01*
X469216Y129203D01*
X465937Y125267D02*
X469872D01*
Y123299D01*
X469216Y122643D01*
X468561D01*
X467905Y123299D01*
Y125267D01*
Y123299D01*
X467249Y122643D01*
X466593D01*
X465937Y123299D01*
Y125267D01*
X466593Y121332D02*
X465937Y120676D01*
Y119364D01*
X466593Y118708D01*
X467249D01*
X467905Y119364D01*
Y120020D01*
Y119364D01*
X468561Y118708D01*
X469216D01*
X469872Y119364D01*
Y120676D01*
X469216Y121332D01*
X466593Y117396D02*
X465937Y116740D01*
Y115428D01*
X466593Y114772D01*
X469216D01*
X469872Y115428D01*
Y116740D01*
X469216Y117396D01*
X466593D01*
X465937Y110836D02*
Y113460D01*
X467905D01*
X467249Y112148D01*
Y111492D01*
X467905Y110836D01*
X469216D01*
X469872Y111492D01*
Y112804D01*
X469216Y113460D01*
X308456Y137074D02*
X312392D01*
X310424D01*
Y134451D01*
X308456D01*
X312392D01*
X308456Y133139D02*
X311736D01*
X312392Y132483D01*
Y131171D01*
X311736Y130515D01*
X308456D01*
X309112Y126579D02*
X308456Y127235D01*
Y128547D01*
X309112Y129203D01*
X309768D01*
X310424Y128547D01*
Y127235D01*
X311080Y126579D01*
X311736D01*
X312392Y127235D01*
Y128547D01*
X311736Y129203D01*
X308456Y125267D02*
X312392D01*
Y123299D01*
X311736Y122643D01*
X311080D01*
X310424Y123299D01*
Y125267D01*
Y123299D01*
X309768Y122643D01*
X309112D01*
X308456Y123299D01*
Y125267D01*
X309112Y121332D02*
X308456Y120676D01*
Y119364D01*
X309112Y118708D01*
X309768D01*
X310424Y119364D01*
Y120020D01*
Y119364D01*
X311080Y118708D01*
X311736D01*
X312392Y119364D01*
Y120676D01*
X311736Y121332D01*
X309112Y117396D02*
X308456Y116740D01*
Y115428D01*
X309112Y114772D01*
X311736D01*
X312392Y115428D01*
Y116740D01*
X311736Y117396D01*
X309112D01*
X308456Y110836D02*
Y113460D01*
X310424D01*
X309768Y112148D01*
Y111492D01*
X310424Y110836D01*
X311736D01*
X312392Y111492D01*
Y112804D01*
X311736Y113460D01*
X150976Y137074D02*
X154912D01*
X152944D01*
Y134451D01*
X150976D01*
X154912D01*
X150976Y133139D02*
X154256D01*
X154912Y132483D01*
Y131171D01*
X154256Y130515D01*
X150976D01*
X151632Y126579D02*
X150976Y127235D01*
Y128547D01*
X151632Y129203D01*
X152288D01*
X152944Y128547D01*
Y127235D01*
X153600Y126579D01*
X154256D01*
X154912Y127235D01*
Y128547D01*
X154256Y129203D01*
X150976Y125267D02*
X154912D01*
Y123299D01*
X154256Y122643D01*
X153600D01*
X152944Y123299D01*
Y125267D01*
Y123299D01*
X152288Y122643D01*
X151632D01*
X150976Y123299D01*
Y125267D01*
X151632Y121332D02*
X150976Y120676D01*
Y119364D01*
X151632Y118708D01*
X152288D01*
X152944Y119364D01*
Y120020D01*
Y119364D01*
X153600Y118708D01*
X154256D01*
X154912Y119364D01*
Y120676D01*
X154256Y121332D01*
X151632Y117396D02*
X150976Y116740D01*
Y115428D01*
X151632Y114772D01*
X154256D01*
X154912Y115428D01*
Y116740D01*
X154256Y117396D01*
X151632D01*
X150976Y110836D02*
Y113460D01*
X152944D01*
X152288Y112148D01*
Y111492D01*
X152944Y110836D01*
X154256D01*
X154912Y111492D01*
Y112804D01*
X154256Y113460D01*
X141132Y104928D02*
Y107552D01*
X138508Y104928D01*
X137853D01*
X137197Y105584D01*
Y106896D01*
X137853Y107552D01*
X141132Y100992D02*
Y103616D01*
X138508Y100992D01*
X137853D01*
X137197Y101648D01*
Y102960D01*
X137853Y103616D01*
X138508Y99681D02*
X140476D01*
X141132Y99025D01*
Y97057D01*
X138508D01*
X137197Y136540D02*
Y139164D01*
X141132D01*
Y136540D01*
X139164Y139164D02*
Y137852D01*
X137853Y132604D02*
X137197Y133260D01*
Y134572D01*
X137853Y135228D01*
X138508D01*
X139164Y134572D01*
Y133260D01*
X139820Y132604D01*
X140476D01*
X141132Y133260D01*
Y134572D01*
X140476Y135228D01*
X137197Y131292D02*
X141132D01*
Y129324D01*
X140476Y128668D01*
X137853D01*
X137197Y129324D01*
Y131292D01*
X125385Y136540D02*
Y139164D01*
X127353D01*
X126697Y137852D01*
Y137196D01*
X127353Y136540D01*
X128665D01*
X129321Y137196D01*
Y138508D01*
X128665Y139164D01*
X125385Y135228D02*
X129321D01*
X128009D01*
X125385Y132604D01*
X127353Y134572D01*
X129321Y132604D01*
Y131292D02*
Y129980D01*
Y130636D01*
X125385D01*
X126041Y131292D01*
D17*
X547244Y72441D02*
X666142D01*
X547244Y83071D02*
X666142D01*
Y72441D02*
Y83071D01*
X547244Y72441D02*
Y83071D01*
X665035Y86539D02*
Y92537D01*
X662036D01*
X661037Y91538D01*
Y89538D01*
X662036Y88539D01*
X665035D01*
X659037Y86539D02*
Y90538D01*
X657038Y92537D01*
X655039Y90538D01*
Y86539D01*
Y89538D01*
X659037D01*
X653039Y92537D02*
Y91538D01*
X651040Y89538D01*
X649041Y91538D01*
Y92537D01*
X651040Y89538D02*
Y86539D01*
X641043D02*
X639044D01*
X640043D01*
Y92537D01*
X641043Y91538D01*
X636045D02*
X635045Y92537D01*
X633046D01*
X632046Y91538D01*
Y87539D01*
X633046Y86539D01*
X635045D01*
X636045Y87539D01*
Y91538D01*
X620050D02*
X621050Y92537D01*
X623049D01*
X624049Y91538D01*
Y87539D01*
X623049Y86539D01*
X621050D01*
X620050Y87539D01*
X618051Y86539D02*
Y92537D01*
X614052Y86539D01*
Y92537D01*
X612053D02*
Y91538D01*
X610053Y89538D01*
X608054Y91538D01*
Y92537D01*
X610053Y89538D02*
Y86539D01*
X600057Y92537D02*
X596058D01*
X598057D01*
Y86539D01*
X591059Y92537D02*
X593059D01*
X594058Y91538D01*
Y87539D01*
X593059Y86539D01*
X591059D01*
X590060Y87539D01*
Y91538D01*
X591059Y92537D01*
X582062Y86539D02*
Y92537D01*
X579063D01*
X578064Y91538D01*
Y89538D01*
X579063Y88539D01*
X582062D01*
X580063D02*
X578064Y86539D01*
X572065Y92537D02*
X576064D01*
Y86539D01*
X572065D01*
X576064Y89538D02*
X574065D01*
X570066Y86539D02*
Y92537D01*
X568067Y90538D01*
X566068Y92537D01*
Y86539D01*
X561069Y92537D02*
X563068D01*
X564068Y91538D01*
Y87539D01*
X563068Y86539D01*
X561069D01*
X560069Y87539D01*
Y91538D01*
X561069Y92537D01*
X558070D02*
Y88539D01*
X556071Y86539D01*
X554071Y88539D01*
Y92537D01*
X548073D02*
X552072D01*
Y86539D01*
X548073D01*
X552072Y89538D02*
X550073D01*
X614642Y165009D02*
Y159011D01*
X610643D01*
X605645D02*
X607644D01*
X608644Y160011D01*
Y162010D01*
X607644Y163010D01*
X605645D01*
X604645Y162010D01*
Y161011D01*
X608644D01*
X600646Y157012D02*
X599647D01*
X598647Y158011D01*
Y163010D01*
X601646D01*
X602646Y162010D01*
Y160011D01*
X601646Y159011D01*
X598647D01*
X593648D02*
X595648D01*
X596648Y160011D01*
Y162010D01*
X595648Y163010D01*
X593648D01*
X592649Y162010D01*
Y161011D01*
X596648D01*
X590650Y159011D02*
Y163010D01*
X587650D01*
X586651Y162010D01*
Y159011D01*
X580653Y165009D02*
Y159011D01*
X583652D01*
X584651Y160011D01*
Y162010D01*
X583652Y163010D01*
X580653D01*
X578653Y159011D02*
X575654D01*
X574655Y160011D01*
X575654Y161011D01*
X577654D01*
X578653Y162010D01*
X577654Y163010D01*
X574655D01*
X299681Y165009D02*
Y159011D01*
X295682D01*
X290684D02*
X292683D01*
X293683Y160011D01*
Y162010D01*
X292683Y163010D01*
X290684D01*
X289684Y162010D01*
Y161011D01*
X293683D01*
X285686Y157012D02*
X284686D01*
X283686Y158011D01*
Y163010D01*
X286685D01*
X287685Y162010D01*
Y160011D01*
X286685Y159011D01*
X283686D01*
X278688D02*
X280687D01*
X281687Y160011D01*
Y162010D01*
X280687Y163010D01*
X278688D01*
X277688Y162010D01*
Y161011D01*
X281687D01*
X275689Y159011D02*
Y163010D01*
X272690D01*
X271690Y162010D01*
Y159011D01*
X265692Y165009D02*
Y159011D01*
X268691D01*
X269691Y160011D01*
Y162010D01*
X268691Y163010D01*
X265692D01*
X263693Y159011D02*
X260694D01*
X259694Y160011D01*
X260694Y161011D01*
X262693D01*
X263693Y162010D01*
X262693Y163010D01*
X259694D01*
X457161Y165009D02*
Y159011D01*
X453163D01*
X448164D02*
X450164D01*
X451163Y160011D01*
Y162010D01*
X450164Y163010D01*
X448164D01*
X447165Y162010D01*
Y161011D01*
X451163D01*
X443166Y157012D02*
X442166D01*
X441167Y158011D01*
Y163010D01*
X444166D01*
X445165Y162010D01*
Y160011D01*
X444166Y159011D01*
X441167D01*
X436168D02*
X438168D01*
X439167Y160011D01*
Y162010D01*
X438168Y163010D01*
X436168D01*
X435169Y162010D01*
Y161011D01*
X439167D01*
X433169Y159011D02*
Y163010D01*
X430170D01*
X429171Y162010D01*
Y159011D01*
X423172Y165009D02*
Y159011D01*
X426171D01*
X427171Y160011D01*
Y162010D01*
X426171Y163010D01*
X423172D01*
X421173Y159011D02*
X418174D01*
X417174Y160011D01*
X418174Y161011D01*
X420173D01*
X421173Y162010D01*
X420173Y163010D01*
X417174D01*
D18*
X216535Y153543D02*
X301181D01*
X374016D02*
X458661D01*
X531496D02*
X616142D01*
D35*
X99488Y135709D02*
X106102D01*
X84646D02*
X90276D01*
X99488Y100512D02*
X106102D01*
X84646D02*
X90276D01*
X84646D02*
Y135709D01*
D39*
X118898Y105512D02*
G03*
X118898Y105512I-394J0D01*
G01*
D40*
X345079Y84842D02*
D03*
D41*
Y73032D02*
D03*
D42*
X299213Y126378D02*
D03*
X456693D02*
D03*
X614173D02*
D03*
X149606Y104331D02*
D03*
X622047D02*
D03*
X464567D02*
D03*
X307087D02*
D03*
M02*
