M48
;Layer_Color=9474304
;FILE_FORMAT=2:5
INCH
;TYPE=PLATED
T02F00S00C0.02165
T03F00S00C0.02362
;TYPE=NON_PLATED
%
G90
G05
T02
G00X0188053Y0106390
M15
G01X0185130Y0109313
M16
G00X0208571Y0126907
M15
G01X0205647Y0129830
M16
G00X0345534Y0106390
M15
G01X0342611Y0109313
M16
G00X0366051Y0126907
M15
G01X0363128Y0129830
M16
G00X0503014Y0106390
M15
G01X0500091Y0109313
M16
G00X0523531Y0126907
M15
G01X0520608Y0129830
M16
G00X0660494Y0106390
M15
G01X0657571Y0109313
M16
G00X0681011Y0126907
M15
G01X0678088Y0129830
M16
T03
G00X0093307Y0101083
M15
G01X0096457
M16
G00X0109134Y0101083
M15
G01X0113465
M16
G00X0109134Y0135138
M15
G01X0113465
M16
G00X0093307Y0135138
M15
G01X0096457
M16
M17
M30
