M48
;Layer_Color=9474304
;FILE_FORMAT=2:5
INCH
;TYPE=PLATED
T01F00S00C0.01181
;TYPE=NON_PLATED
T04F00S00C0.02362
%
T01
X0161024Y0098819
X0166240Y0135827
X0186240Y0124213
Y0119311
X0200000Y0109449
X0318504Y0098819
X0323721Y0135827
X0343720Y0124213
Y0119311
X0357480Y0109449
X0475984Y0098819
X0481201Y0135827
X0501201Y0124213
Y0119311
X0514961Y0109449
X0633465Y0098819
X0638681Y0135827
X0658681Y0124213
Y0119311
X0672441Y0109449
T04
X0109370Y0106732
Y0129488
M30
