G04*
G04 #@! TF.GenerationSoftware,Altium Limited,Altium Designer,24.5.2 (23)*
G04*
G04 Layer_Color=16711935*
%FSLAX25Y25*%
%MOIN*%
G70*
G04*
G04 #@! TF.SameCoordinates,203F89A4-B1B2-41DF-AC4B-4AFD0BA2CC77*
G04*
G04*
G04 #@! TF.FilePolarity,Negative*
G04*
G01*
G75*
%ADD13C,0.03162*%
%ADD14O,0.08674X0.04343*%
%ADD15O,0.07493X0.04343*%
G04:AMPARAMS|DCode=16|XSize=94.61mil|YSize=53.28mil|CornerRadius=0mil|HoleSize=0mil|Usage=FLASHONLY|Rotation=135.000|XOffset=0mil|YOffset=0mil|HoleType=Round|Shape=Round|*
%AMOVALD16*
21,1,0.04134,0.05328,0.00000,0.00000,135.0*
1,1,0.05328,0.01462,-0.01462*
1,1,0.05328,-0.01462,0.01462*
%
%ADD16OVALD16*%

%ADD24R,0.01575X0.04724*%
%ADD25R,0.03000X0.03200*%
%ADD26R,0.03200X0.03000*%
%ADD29R,0.04700X0.04300*%
%ADD36R,0.04882X0.02756*%
%ADD37R,0.04882X0.01575*%
%ADD38R,0.10800X0.06784*%
D13*
X109370Y106732D02*
D03*
Y129488D02*
D03*
D14*
X111299Y101083D02*
D03*
Y135138D02*
D03*
D15*
X94882Y101083D02*
D03*
Y135138D02*
D03*
D16*
X344072Y107852D02*
D03*
X364589Y128369D02*
D03*
X186592Y107852D02*
D03*
X207109Y128369D02*
D03*
X659033Y107852D02*
D03*
X679550Y128369D02*
D03*
X501552Y107852D02*
D03*
X522070Y128369D02*
D03*
D24*
X631988Y123228D02*
D03*
X634547D02*
D03*
X637106D02*
D03*
X639665D02*
D03*
X631988Y112992D02*
D03*
X634547D02*
D03*
X637106D02*
D03*
X639665D02*
D03*
X474508Y123228D02*
D03*
X477067D02*
D03*
X479626D02*
D03*
X482185D02*
D03*
X474508Y112992D02*
D03*
X477067D02*
D03*
X479626D02*
D03*
X482185D02*
D03*
X317028Y123228D02*
D03*
X319587D02*
D03*
X322146D02*
D03*
X324705D02*
D03*
X317028Y112992D02*
D03*
X319587D02*
D03*
X322146D02*
D03*
X324705D02*
D03*
X159547Y123228D02*
D03*
X162106D02*
D03*
X164665D02*
D03*
X167224D02*
D03*
X159547Y112992D02*
D03*
X162106D02*
D03*
X164665D02*
D03*
X167224D02*
D03*
D25*
X626871Y104331D02*
D03*
X632971D02*
D03*
X469391D02*
D03*
X475491D02*
D03*
X311911D02*
D03*
X318011D02*
D03*
X154430D02*
D03*
X160530D02*
D03*
X638682Y131890D02*
D03*
X644782D02*
D03*
X481202D02*
D03*
X487302D02*
D03*
X323722D02*
D03*
X329822D02*
D03*
X166241D02*
D03*
X172341D02*
D03*
X638682Y104331D02*
D03*
X644782D02*
D03*
X638682Y98425D02*
D03*
X644782D02*
D03*
X481202Y104331D02*
D03*
X487302D02*
D03*
X481202Y98425D02*
D03*
X487302D02*
D03*
X323722Y104331D02*
D03*
X329822D02*
D03*
X323722Y98425D02*
D03*
X329822D02*
D03*
X166241Y104331D02*
D03*
X172341D02*
D03*
X166241Y98425D02*
D03*
X172341D02*
D03*
D26*
X127953Y150688D02*
D03*
Y144588D02*
D03*
X122047Y150688D02*
D03*
Y144588D02*
D03*
X645669Y121160D02*
D03*
Y115060D02*
D03*
X488189Y121160D02*
D03*
Y115060D02*
D03*
X330709Y121160D02*
D03*
Y115060D02*
D03*
X173228Y121160D02*
D03*
Y115060D02*
D03*
X122047Y85533D02*
D03*
Y91633D02*
D03*
X127953Y85533D02*
D03*
Y91633D02*
D03*
D29*
X137795Y157925D02*
D03*
Y145225D02*
D03*
D36*
X113583Y105512D02*
D03*
Y108661D02*
D03*
Y127559D02*
D03*
Y130709D02*
D03*
D37*
Y117126D02*
D03*
Y115157D02*
D03*
Y113189D02*
D03*
Y111221D02*
D03*
Y119095D02*
D03*
Y121063D02*
D03*
Y123031D02*
D03*
Y125000D02*
D03*
D38*
X137795Y76732D02*
D03*
Y90197D02*
D03*
M02*
