G04*
G04 #@! TF.GenerationSoftware,Altium Limited,Altium Designer,24.5.2 (23)*
G04*
G04 Layer_Physical_Order=1*
G04 Layer_Color=255*
%FSLAX25Y25*%
%MOIN*%
G70*
G04*
G04 #@! TF.SameCoordinates,203F89A4-B1B2-41DF-AC4B-4AFD0BA2CC77*
G04*
G04*
G04 #@! TF.FilePolarity,Positive*
G04*
G01*
G75*
G04:AMPARAMS|DCode=11|XSize=15.75mil|YSize=39.37mil|CornerRadius=0mil|HoleSize=0mil|Usage=FLASHONLY|Rotation=45.000|XOffset=0mil|YOffset=0mil|HoleType=Round|Shape=Rectangle|*
%AMROTATEDRECTD11*
4,1,4,0.00835,-0.01949,-0.01949,0.00835,-0.00835,0.01949,0.01949,-0.00835,0.00835,-0.01949,0.0*
%
%ADD11ROTATEDRECTD11*%

%ADD17C,0.01500*%
%ADD18C,0.01000*%
%ADD19C,0.02362*%
%ADD20O,0.07874X0.03543*%
%ADD21O,0.06693X0.03543*%
G04:AMPARAMS|DCode=22|XSize=86.61mil|YSize=45.28mil|CornerRadius=0mil|HoleSize=0mil|Usage=FLASHONLY|Rotation=135.000|XOffset=0mil|YOffset=0mil|HoleType=Round|Shape=Round|*
%AMOVALD22*
21,1,0.04134,0.04528,0.00000,0.00000,135.0*
1,1,0.04528,0.01462,-0.01462*
1,1,0.04528,-0.01462,0.01462*
%
%ADD22OVALD22*%

%ADD23C,0.01968*%
G36*
X700787Y66929D02*
X86614D01*
Y169291D01*
X700787D01*
Y66929D01*
D02*
G37*
%LPC*%
G36*
X685563Y159878D02*
X684516D01*
X684417Y159858D01*
X684317D01*
X683290Y159654D01*
X683197Y159616D01*
X683099Y159596D01*
X682132Y159195D01*
X682048Y159140D01*
X681955Y159101D01*
X681085Y158519D01*
X681014Y158448D01*
X680930Y158393D01*
X680190Y157652D01*
X680134Y157569D01*
X680063Y157498D01*
X679482Y156627D01*
X679443Y156535D01*
X679387Y156451D01*
X678987Y155484D01*
X678967Y155385D01*
X678929Y155292D01*
X678724Y154266D01*
Y154165D01*
X678705Y154067D01*
Y153020D01*
X678724Y152921D01*
Y152821D01*
X678929Y151794D01*
X678967Y151701D01*
X678987Y151603D01*
X679387Y150636D01*
X679443Y150552D01*
X679482Y150459D01*
X680063Y149589D01*
X680134Y149518D01*
X680190Y149434D01*
X680930Y148694D01*
X681014Y148638D01*
X681085Y148567D01*
X681955Y147985D01*
X682048Y147947D01*
X682132Y147891D01*
X683099Y147491D01*
X683197Y147471D01*
X683290Y147433D01*
X684317Y147228D01*
X684417D01*
X684516Y147209D01*
X685563D01*
X685661Y147228D01*
X685762D01*
X686789Y147433D01*
X686881Y147471D01*
X686980Y147491D01*
X687947Y147891D01*
X688031Y147947D01*
X688123Y147985D01*
X688994Y148567D01*
X689065Y148638D01*
X689148Y148694D01*
X689889Y149434D01*
X689945Y149518D01*
X690016Y149589D01*
X690597Y150459D01*
X690636Y150552D01*
X690691Y150636D01*
X691092Y151603D01*
X691112Y151701D01*
X691150Y151794D01*
X691354Y152821D01*
Y152921D01*
X691374Y153020D01*
Y154067D01*
X691354Y154165D01*
Y154266D01*
X691150Y155292D01*
X691112Y155385D01*
X691092Y155484D01*
X690691Y156451D01*
X690636Y156535D01*
X690597Y156627D01*
X690016Y157498D01*
X689945Y157569D01*
X689889Y157652D01*
X689148Y158393D01*
X689065Y158449D01*
X688994Y158519D01*
X688123Y159101D01*
X688031Y159140D01*
X687947Y159195D01*
X686980Y159596D01*
X686881Y159616D01*
X686789Y159654D01*
X685762Y159858D01*
X685661D01*
X685563Y159878D01*
D02*
G37*
G36*
X102886D02*
X101839D01*
X101740Y159858D01*
X101640D01*
X100613Y159654D01*
X100520Y159616D01*
X100422Y159596D01*
X99454Y159195D01*
X99371Y159140D01*
X99278Y159101D01*
X98408Y158519D01*
X98337Y158448D01*
X98253Y158393D01*
X97513Y157652D01*
X97457Y157569D01*
X97386Y157498D01*
X96804Y156627D01*
X96766Y156535D01*
X96710Y156451D01*
X96310Y155484D01*
X96290Y155385D01*
X96251Y155292D01*
X96047Y154266D01*
Y154165D01*
X96028Y154067D01*
Y153020D01*
X96047Y152921D01*
Y152821D01*
X96251Y151794D01*
X96290Y151701D01*
X96310Y151603D01*
X96710Y150636D01*
X96766Y150552D01*
X96804Y150459D01*
X97386Y149589D01*
X97457Y149518D01*
X97513Y149434D01*
X98253Y148694D01*
X98337Y148638D01*
X98408Y148567D01*
X99278Y147985D01*
X99371Y147947D01*
X99454Y147891D01*
X100422Y147491D01*
X100520Y147471D01*
X100613Y147433D01*
X101640Y147228D01*
X101740D01*
X101839Y147209D01*
X102886D01*
X102984Y147228D01*
X103085D01*
X104111Y147433D01*
X104204Y147471D01*
X104303Y147491D01*
X105270Y147891D01*
X105353Y147947D01*
X105446Y147985D01*
X106317Y148567D01*
X106388Y148638D01*
X106471Y148694D01*
X107212Y149434D01*
X107267Y149518D01*
X107338Y149589D01*
X107920Y150459D01*
X107958Y150552D01*
X108014Y150636D01*
X108415Y151603D01*
X108434Y151701D01*
X108473Y151794D01*
X108677Y152821D01*
Y152921D01*
X108697Y153020D01*
Y154067D01*
X108677Y154165D01*
Y154266D01*
X108473Y155292D01*
X108434Y155385D01*
X108415Y155484D01*
X108014Y156451D01*
X107958Y156535D01*
X107920Y156627D01*
X107338Y157498D01*
X107267Y157569D01*
X107212Y157652D01*
X106471Y158393D01*
X106388Y158449D01*
X106317Y158519D01*
X105446Y159101D01*
X105353Y159140D01*
X105270Y159195D01*
X104303Y159596D01*
X104204Y159616D01*
X104111Y159654D01*
X103085Y159858D01*
X102984D01*
X102886Y159878D01*
D02*
G37*
G36*
X113465Y137933D02*
X111799D01*
Y135638D01*
X116194D01*
X116165Y135861D01*
X115886Y136536D01*
X115441Y137115D01*
X114862Y137559D01*
X114188Y137838D01*
X113465Y137933D01*
D02*
G37*
G36*
X110799D02*
X109134D01*
X108410Y137838D01*
X107736Y137559D01*
X107157Y137115D01*
X106713Y136536D01*
X106433Y135861D01*
X106404Y135638D01*
X110799D01*
Y137933D01*
D02*
G37*
G36*
X96457D02*
X95382D01*
Y135638D01*
X99186D01*
X99157Y135861D01*
X98878Y136536D01*
X98434Y137115D01*
X97855Y137559D01*
X97180Y137838D01*
X96457Y137933D01*
D02*
G37*
G36*
X94382D02*
X93307D01*
X92584Y137838D01*
X91909Y137559D01*
X91330Y137115D01*
X90886Y136536D01*
X90607Y135861D01*
X90577Y135638D01*
X94382D01*
Y137933D01*
D02*
G37*
G36*
X116194Y134638D02*
X111799D01*
Y132342D01*
X113465D01*
X114188Y132438D01*
X114862Y132717D01*
X115441Y133161D01*
X115886Y133740D01*
X116165Y134414D01*
X116194Y134638D01*
D02*
G37*
G36*
X110799D02*
X106404D01*
X106433Y134414D01*
X106713Y133740D01*
X107157Y133161D01*
X107736Y132717D01*
X108410Y132438D01*
X109134Y132342D01*
X110799D01*
Y134638D01*
D02*
G37*
G36*
X99186D02*
X95382D01*
Y132342D01*
X96457D01*
X97180Y132438D01*
X97855Y132717D01*
X98434Y133161D01*
X98878Y133740D01*
X99157Y134414D01*
X99186Y134638D01*
D02*
G37*
G36*
X94382D02*
X90577D01*
X90607Y134414D01*
X90886Y133740D01*
X91330Y133161D01*
X91909Y132717D01*
X92584Y132438D01*
X93307Y132342D01*
X94382D01*
Y134638D01*
D02*
G37*
G36*
X678088Y133122D02*
X677236Y133010D01*
X676442Y132681D01*
X676161Y132465D01*
X679550Y129076D01*
X681524Y131050D01*
X680416Y132158D01*
X679734Y132681D01*
X678940Y133010D01*
X678088Y133122D01*
D02*
G37*
G36*
X205647D02*
X204796Y133010D01*
X204001Y132681D01*
X203720Y132465D01*
X207109Y129076D01*
X209083Y131050D01*
X207975Y132158D01*
X207293Y132681D01*
X206500Y133010D01*
X205647Y133122D01*
D02*
G37*
G36*
X363128D02*
X362276Y133010D01*
X361482Y132681D01*
X361200Y132465D01*
X364589Y129076D01*
X366564Y131050D01*
X365456Y132158D01*
X364774Y132681D01*
X363980Y133010D01*
X363128Y133122D01*
D02*
G37*
G36*
X520608D02*
X519756Y133010D01*
X518962Y132681D01*
X518680Y132465D01*
X522070Y129076D01*
X524044Y131050D01*
X522936Y132158D01*
X522254Y132681D01*
X521460Y133010D01*
X520608Y133122D01*
D02*
G37*
G36*
X109804Y131669D02*
X108936D01*
X108135Y131337D01*
X107521Y130724D01*
X107189Y129922D01*
Y129054D01*
X107521Y128253D01*
X108135Y127639D01*
X108936Y127307D01*
X109804D01*
X110606Y127639D01*
X111219Y128253D01*
X111551Y129054D01*
Y129922D01*
X111219Y130724D01*
X110606Y131337D01*
X109804Y131669D01*
D02*
G37*
G36*
X675454Y131758D02*
X675238Y131476D01*
X674909Y130682D01*
X674796Y129830D01*
X674909Y128978D01*
X675238Y128184D01*
X675761Y127503D01*
X676869Y126395D01*
X678843Y128369D01*
X675454Y131758D01*
D02*
G37*
G36*
X203013Y131758D02*
X202797Y131476D01*
X202468Y130682D01*
X202356Y129830D01*
X202468Y128978D01*
X202797Y128184D01*
X203320Y127503D01*
X204428Y126395D01*
X206402Y128369D01*
X203013Y131758D01*
D02*
G37*
G36*
X360493D02*
X360277Y131476D01*
X359948Y130682D01*
X359836Y129830D01*
X359948Y128978D01*
X360277Y128184D01*
X360800Y127503D01*
X361908Y126395D01*
X363882Y128369D01*
X360493Y131758D01*
D02*
G37*
G36*
X517973Y131758D02*
X517757Y131476D01*
X517428Y130682D01*
X517316Y129830D01*
X517428Y128978D01*
X517757Y128184D01*
X518280Y127503D01*
X519388Y126395D01*
X521362Y128369D01*
X517973Y131758D01*
D02*
G37*
G36*
X524751Y130343D02*
X522777Y128369D01*
X526166Y124980D01*
X526382Y125261D01*
X526711Y126055D01*
X526823Y126907D01*
X526711Y127759D01*
X526382Y128553D01*
X525859Y129235D01*
X524751Y130343D01*
D02*
G37*
G36*
X367271Y130343D02*
X365296Y128369D01*
X368686Y124980D01*
X368902Y125261D01*
X369231Y126055D01*
X369343Y126907D01*
X369231Y127759D01*
X368902Y128553D01*
X368379Y129235D01*
X367271Y130343D01*
D02*
G37*
G36*
X209790Y130343D02*
X207816Y128369D01*
X211205Y124980D01*
X211421Y125261D01*
X211750Y126055D01*
X211862Y126907D01*
X211750Y127759D01*
X211421Y128553D01*
X210898Y129235D01*
X209790Y130343D01*
D02*
G37*
G36*
X682231Y130343D02*
X680257Y128369D01*
X683646Y124980D01*
X683862Y125261D01*
X684191Y126055D01*
X684303Y126907D01*
X684191Y127759D01*
X683862Y128553D01*
X683339Y129235D01*
X682231Y130343D01*
D02*
G37*
G36*
X679550Y127662D02*
X677576Y125688D01*
X678684Y124580D01*
X679365Y124056D01*
X680160Y123728D01*
X681011Y123615D01*
X681863Y123728D01*
X682657Y124056D01*
X682939Y124273D01*
X679550Y127662D01*
D02*
G37*
G36*
X522070Y127662D02*
X520095Y125688D01*
X521203Y124580D01*
X521885Y124056D01*
X522679Y123728D01*
X523531Y123615D01*
X524383Y123728D01*
X525177Y124056D01*
X525459Y124273D01*
X522070Y127662D01*
D02*
G37*
G36*
X364589D02*
X362615Y125688D01*
X363723Y124580D01*
X364405Y124056D01*
X365199Y123728D01*
X366051Y123615D01*
X366903Y123728D01*
X367697Y124056D01*
X367979Y124273D01*
X364589Y127662D01*
D02*
G37*
G36*
X207109Y127662D02*
X205135Y125688D01*
X206243Y124580D01*
X206925Y124056D01*
X207718Y123728D01*
X208571Y123615D01*
X209423Y123728D01*
X210216Y124056D01*
X210498Y124273D01*
X207109Y127662D01*
D02*
G37*
G36*
X512577Y129199D02*
X511939Y128561D01*
X511856Y128505D01*
X510698Y127347D01*
X510642Y127263D01*
X508846Y125468D01*
X506318Y122940D01*
X503531Y120153D01*
X503365Y120153D01*
X502965Y120552D01*
Y123811D01*
X502985Y123858D01*
Y124567D01*
X502713Y125223D01*
X502211Y125725D01*
X501555Y125997D01*
X500846D01*
X500190Y125725D01*
X499920Y125455D01*
X499919Y125455D01*
X499919Y125455D01*
X499688Y125223D01*
X499563Y124921D01*
X499533Y124876D01*
X499522Y124823D01*
X499416Y124567D01*
Y124291D01*
X499397Y124193D01*
Y119311D01*
X499416Y119213D01*
Y118956D01*
X499515Y118719D01*
X499533Y118628D01*
X499584Y118551D01*
X499688Y118300D01*
X499880Y118108D01*
X499919Y118049D01*
X499978Y118010D01*
X500190Y117798D01*
X500333Y117739D01*
X500725Y117347D01*
X500723Y117345D01*
X501360Y116707D01*
X501416Y116624D01*
X510324Y107715D01*
X510408Y107659D01*
X511045Y107022D01*
X511683Y107659D01*
X511766Y107715D01*
X512924Y108873D01*
X512928Y108874D01*
X513615Y108187D01*
X513868Y108018D01*
X513950Y107936D01*
X514057Y107892D01*
X514194Y107800D01*
X514355Y107768D01*
X514606Y107665D01*
X514877D01*
X514877Y107665D01*
X514877Y107665D01*
X515315D01*
X515971Y107936D01*
X516473Y108438D01*
X516745Y109094D01*
Y109804D01*
X516473Y110459D01*
X515971Y110961D01*
X515828Y111021D01*
X515436Y111413D01*
X518506Y114483D01*
X520964Y116941D01*
X521048Y116997D01*
X522206Y118155D01*
X522262Y118238D01*
X522899Y118876D01*
X522262Y119513D01*
X522206Y119597D01*
X513298Y128505D01*
X513214Y128561D01*
X512577Y129199D01*
D02*
G37*
G36*
X670057D02*
X669419Y128561D01*
X669336Y128505D01*
X668178Y127347D01*
X668122Y127263D01*
X665664Y124805D01*
X663799Y122940D01*
X660729Y119870D01*
X660446Y120153D01*
Y123811D01*
X660465Y123858D01*
Y124567D01*
X660193Y125223D01*
X659692Y125725D01*
X659036Y125997D01*
X658326D01*
X657670Y125725D01*
X657400Y125455D01*
X657400Y125455D01*
X657400Y125455D01*
X657168Y125223D01*
X657043Y124921D01*
X657013Y124876D01*
X657002Y124823D01*
X656897Y124567D01*
Y124291D01*
X656877Y124193D01*
Y119311D01*
X656897Y119213D01*
Y118956D01*
X656995Y118719D01*
X657013Y118628D01*
X657064Y118551D01*
X657168Y118300D01*
X657360Y118108D01*
X657400Y118049D01*
X657459Y118010D01*
X657670Y117798D01*
X657813Y117739D01*
X658205Y117347D01*
X658203Y117345D01*
X658841Y116707D01*
X658896Y116624D01*
X667805Y107715D01*
X667888Y107659D01*
X668526Y107022D01*
X669163Y107659D01*
X669247Y107715D01*
X670405Y108873D01*
X670409Y108874D01*
X671095Y108187D01*
X671348Y108018D01*
X671430Y107936D01*
X671537Y107892D01*
X671674Y107800D01*
X671836Y107768D01*
X672086Y107665D01*
X672357D01*
X672357Y107665D01*
X672357Y107665D01*
X672796D01*
X673452Y107936D01*
X673954Y108438D01*
X674225Y109094D01*
Y109804D01*
X673954Y110459D01*
X673452Y110961D01*
X673309Y111021D01*
X672917Y111413D01*
X675987Y114483D01*
X678445Y116941D01*
X678528Y116997D01*
X679686Y118155D01*
X679742Y118238D01*
X680380Y118876D01*
X679742Y119513D01*
X679686Y119597D01*
X670778Y128505D01*
X670694Y128561D01*
X670057Y129199D01*
D02*
G37*
G36*
X355096D02*
X354459Y128561D01*
X354375Y128505D01*
X353217Y127347D01*
X353161Y127264D01*
X350703Y124805D01*
X348838Y122940D01*
X345768Y119870D01*
X345485Y120153D01*
Y123811D01*
X345505Y123858D01*
Y124567D01*
X345233Y125223D01*
X344731Y125725D01*
X344075Y125997D01*
X343365D01*
X342710Y125725D01*
X342439Y125455D01*
X342439Y125455D01*
X342439Y125455D01*
X342208Y125223D01*
X342083Y124921D01*
X342052Y124876D01*
X342042Y124823D01*
X341936Y124567D01*
Y124291D01*
X341916Y124193D01*
Y119311D01*
X341936Y119213D01*
Y118956D01*
X342034Y118719D01*
X342052Y118628D01*
X342104Y118551D01*
X342208Y118300D01*
X342400Y118108D01*
X342439Y118049D01*
X342498Y118010D01*
X342710Y117798D01*
X342853Y117739D01*
X343245Y117347D01*
X343243Y117345D01*
X343880Y116707D01*
X343936Y116624D01*
X352844Y107715D01*
X352928Y107659D01*
X353565Y107022D01*
X354203Y107659D01*
X354286Y107715D01*
X355444Y108873D01*
X355448Y108874D01*
X356135Y108187D01*
X356387Y108018D01*
X356470Y107936D01*
X356577Y107892D01*
X356714Y107800D01*
X356875Y107768D01*
X357125Y107665D01*
X357396D01*
X357397Y107665D01*
X357397Y107665D01*
X357835D01*
X358491Y107936D01*
X358993Y108438D01*
X359265Y109094D01*
Y109804D01*
X358993Y110459D01*
X358491Y110961D01*
X358348Y111021D01*
X357956Y111413D01*
X361026Y114483D01*
X363484Y116941D01*
X363568Y116997D01*
X364726Y118155D01*
X364781Y118238D01*
X365419Y118876D01*
X364781Y119513D01*
X364726Y119597D01*
X355817Y128505D01*
X355734Y128561D01*
X355096Y129199D01*
D02*
G37*
G36*
X197616D02*
X196979Y128561D01*
X196895Y128505D01*
X195737Y127347D01*
X195681Y127263D01*
X193223Y124805D01*
X191358Y122940D01*
X188288Y119870D01*
X188005Y120153D01*
Y123811D01*
X188024Y123858D01*
Y124567D01*
X187753Y125223D01*
X187251Y125725D01*
X186595Y125997D01*
X185885D01*
X185229Y125725D01*
X184959Y125455D01*
X184959Y125455D01*
X184959Y125455D01*
X184727Y125223D01*
X184602Y124921D01*
X184572Y124876D01*
X184561Y124823D01*
X184456Y124567D01*
Y124291D01*
X184436Y124193D01*
Y119311D01*
X184456Y119213D01*
Y118956D01*
X184554Y118719D01*
X184572Y118628D01*
X184623Y118551D01*
X184727Y118300D01*
X184919Y118108D01*
X184959Y118049D01*
X185018Y118010D01*
X185229Y117798D01*
X185372Y117739D01*
X185764Y117347D01*
X185762Y117345D01*
X186400Y116707D01*
X186455Y116624D01*
X195364Y107715D01*
X195447Y107659D01*
X196085Y107022D01*
X196722Y107659D01*
X196806Y107715D01*
X197964Y108873D01*
X197968Y108874D01*
X198654Y108187D01*
X198907Y108018D01*
X198989Y107936D01*
X199097Y107892D01*
X199233Y107800D01*
X199395Y107768D01*
X199645Y107665D01*
X199916D01*
X199916Y107665D01*
X199916Y107665D01*
X200355D01*
X201011Y107936D01*
X201513Y108438D01*
X201784Y109094D01*
Y109804D01*
X201513Y110459D01*
X201011Y110961D01*
X200868Y111021D01*
X200476Y111413D01*
X203546Y114483D01*
X206004Y116941D01*
X206087Y116997D01*
X207245Y118155D01*
X207301Y118238D01*
X207939Y118876D01*
X207301Y119513D01*
X207245Y119597D01*
X198337Y128505D01*
X198253Y128561D01*
X197616Y129199D01*
D02*
G37*
G36*
X342611Y112605D02*
X341759Y112493D01*
X340965Y112164D01*
X340683Y111948D01*
X344072Y108559D01*
X346046Y110533D01*
X344938Y111641D01*
X344256Y112164D01*
X343463Y112493D01*
X342611Y112605D01*
D02*
G37*
G36*
X657571D02*
X656719Y112493D01*
X655925Y112164D01*
X655644Y111948D01*
X659033Y108559D01*
X661007Y110533D01*
X659899Y111641D01*
X659217Y112164D01*
X658423Y112493D01*
X657571Y112605D01*
D02*
G37*
G36*
X500091D02*
X499239Y112493D01*
X498445Y112164D01*
X498163Y111948D01*
X501552Y108559D01*
X503527Y110533D01*
X502419Y111641D01*
X501737Y112164D01*
X500943Y112493D01*
X500091Y112605D01*
D02*
G37*
G36*
X185130D02*
X184278Y112493D01*
X183484Y112164D01*
X183203Y111948D01*
X186592Y108559D01*
X188566Y110533D01*
X187458Y111641D01*
X186776Y112164D01*
X185982Y112493D01*
X185130Y112605D01*
D02*
G37*
G36*
X339976Y111241D02*
X339760Y110959D01*
X339431Y110165D01*
X339319Y109313D01*
X339431Y108461D01*
X339760Y107667D01*
X340283Y106985D01*
X341391Y105877D01*
X343365Y107852D01*
X339976Y111241D01*
D02*
G37*
G36*
X654936Y111241D02*
X654720Y110959D01*
X654391Y110165D01*
X654279Y109313D01*
X654391Y108461D01*
X654720Y107667D01*
X655243Y106985D01*
X656351Y105877D01*
X658326Y107852D01*
X654936Y111241D01*
D02*
G37*
G36*
X497456D02*
X497240Y110959D01*
X496911Y110165D01*
X496799Y109313D01*
X496911Y108461D01*
X497240Y107667D01*
X497763Y106985D01*
X498871Y105877D01*
X500845Y107852D01*
X497456Y111241D01*
D02*
G37*
G36*
X182495Y111241D02*
X182279Y110959D01*
X181950Y110165D01*
X181838Y109313D01*
X181950Y108461D01*
X182279Y107667D01*
X182802Y106985D01*
X183911Y105877D01*
X185885Y107852D01*
X182495Y111241D01*
D02*
G37*
G36*
X109804Y108913D02*
X108936D01*
X108135Y108581D01*
X107521Y107968D01*
X107189Y107166D01*
Y106298D01*
X107521Y105497D01*
X108135Y104883D01*
X108936Y104551D01*
X109804D01*
X110606Y104883D01*
X111219Y105497D01*
X111551Y106298D01*
Y107166D01*
X111219Y107968D01*
X110606Y108581D01*
X109804Y108913D01*
D02*
G37*
G36*
X189273Y109826D02*
X187299Y107852D01*
X190688Y104462D01*
X190904Y104744D01*
X191233Y105538D01*
X191345Y106390D01*
X191233Y107242D01*
X190904Y108036D01*
X190381Y108718D01*
X189273Y109826D01*
D02*
G37*
G36*
X661714Y109826D02*
X659740Y107852D01*
X663129Y104462D01*
X663345Y104744D01*
X663674Y105538D01*
X663786Y106390D01*
X663674Y107242D01*
X663345Y108036D01*
X662822Y108718D01*
X661714Y109826D01*
D02*
G37*
G36*
X504234D02*
X502259Y107852D01*
X505649Y104462D01*
X505865Y104744D01*
X506194Y105538D01*
X506306Y106390D01*
X506194Y107242D01*
X505865Y108036D01*
X505342Y108718D01*
X504234Y109826D01*
D02*
G37*
G36*
X346753Y109826D02*
X344779Y107852D01*
X348168Y104462D01*
X348384Y104744D01*
X348713Y105538D01*
X348826Y106390D01*
X348713Y107242D01*
X348384Y108036D01*
X347861Y108718D01*
X346753Y109826D01*
D02*
G37*
G36*
X659033Y107144D02*
X657058Y105170D01*
X658167Y104062D01*
X658848Y103539D01*
X659642Y103210D01*
X660494Y103098D01*
X661346Y103210D01*
X662140Y103539D01*
X662422Y103755D01*
X659033Y107144D01*
D02*
G37*
G36*
X501552D02*
X499578Y105170D01*
X500686Y104062D01*
X501368Y103539D01*
X502162Y103210D01*
X503014Y103098D01*
X503866Y103210D01*
X504660Y103539D01*
X504942Y103755D01*
X501552Y107144D01*
D02*
G37*
G36*
X344072Y107144D02*
X342098Y105170D01*
X343206Y104062D01*
X343888Y103539D01*
X344682Y103210D01*
X345534Y103098D01*
X346386Y103210D01*
X347180Y103539D01*
X347461Y103755D01*
X344072Y107144D01*
D02*
G37*
G36*
X186592Y107144D02*
X184618Y105170D01*
X185726Y104062D01*
X186407Y103539D01*
X187201Y103210D01*
X188053Y103098D01*
X188905Y103210D01*
X189699Y103539D01*
X189981Y103755D01*
X186592Y107144D01*
D02*
G37*
G36*
X113465Y103878D02*
X111799D01*
Y101583D01*
X116194D01*
X116165Y101806D01*
X115886Y102480D01*
X115441Y103059D01*
X114862Y103504D01*
X114188Y103783D01*
X113465Y103878D01*
D02*
G37*
G36*
X110799D02*
X109134D01*
X108410Y103783D01*
X107736Y103504D01*
X107157Y103059D01*
X106713Y102480D01*
X106433Y101806D01*
X106404Y101583D01*
X110799D01*
Y103878D01*
D02*
G37*
G36*
X96457D02*
X95382D01*
Y101583D01*
X99186D01*
X99157Y101806D01*
X98878Y102480D01*
X98434Y103059D01*
X97855Y103504D01*
X97180Y103783D01*
X96457Y103878D01*
D02*
G37*
G36*
X94382D02*
X93307D01*
X92584Y103783D01*
X91909Y103504D01*
X91330Y103059D01*
X90886Y102480D01*
X90607Y101806D01*
X90577Y101583D01*
X94382D01*
Y103878D01*
D02*
G37*
G36*
X116194Y100583D02*
X111799D01*
Y98287D01*
X113465D01*
X114188Y98382D01*
X114862Y98662D01*
X115441Y99106D01*
X115886Y99685D01*
X116165Y100359D01*
X116194Y100583D01*
D02*
G37*
G36*
X110799D02*
X106404D01*
X106433Y100359D01*
X106713Y99685D01*
X107157Y99106D01*
X107736Y98662D01*
X108410Y98382D01*
X109134Y98287D01*
X110799D01*
Y100583D01*
D02*
G37*
G36*
X99186D02*
X95382D01*
Y98287D01*
X96457D01*
X97180Y98382D01*
X97855Y98662D01*
X98434Y99106D01*
X98878Y99685D01*
X99157Y100359D01*
X99186Y100583D01*
D02*
G37*
G36*
X94382D02*
X90577D01*
X90607Y100359D01*
X90886Y99685D01*
X91330Y99106D01*
X91909Y98662D01*
X92584Y98382D01*
X93307Y98287D01*
X94382D01*
Y100583D01*
D02*
G37*
G36*
X685563Y89012D02*
X684516D01*
X684417Y88992D01*
X684317D01*
X683290Y88788D01*
X683197Y88749D01*
X683099Y88730D01*
X682132Y88329D01*
X682048Y88273D01*
X681955Y88235D01*
X681085Y87653D01*
X681014Y87582D01*
X680930Y87527D01*
X680190Y86786D01*
X680134Y86703D01*
X680063Y86632D01*
X679482Y85761D01*
X679443Y85668D01*
X679387Y85585D01*
X678987Y84618D01*
X678967Y84519D01*
X678929Y84426D01*
X678724Y83399D01*
Y83299D01*
X678705Y83201D01*
Y82154D01*
X678724Y82055D01*
Y81955D01*
X678929Y80928D01*
X678967Y80835D01*
X678987Y80737D01*
X679387Y79769D01*
X679443Y79686D01*
X679482Y79593D01*
X680063Y78723D01*
X680134Y78652D01*
X680190Y78568D01*
X680930Y77828D01*
X681014Y77772D01*
X681085Y77701D01*
X681955Y77119D01*
X682048Y77081D01*
X682132Y77025D01*
X683099Y76625D01*
X683197Y76605D01*
X683290Y76566D01*
X684317Y76362D01*
X684417D01*
X684516Y76343D01*
X685563D01*
X685661Y76362D01*
X685762D01*
X686789Y76566D01*
X686881Y76605D01*
X686980Y76625D01*
X687947Y77025D01*
X688031Y77081D01*
X688123Y77119D01*
X688994Y77701D01*
X689065Y77772D01*
X689148Y77828D01*
X689889Y78568D01*
X689945Y78652D01*
X690016Y78723D01*
X690597Y79593D01*
X690636Y79686D01*
X690691Y79769D01*
X691092Y80737D01*
X691112Y80835D01*
X691150Y80928D01*
X691354Y81955D01*
Y82055D01*
X691374Y82154D01*
Y83201D01*
X691354Y83299D01*
Y83400D01*
X691150Y84426D01*
X691112Y84519D01*
X691092Y84618D01*
X690691Y85585D01*
X690636Y85668D01*
X690597Y85761D01*
X690016Y86632D01*
X689945Y86703D01*
X689889Y86786D01*
X689148Y87527D01*
X689065Y87582D01*
X688994Y87653D01*
X688123Y88235D01*
X688031Y88273D01*
X687947Y88329D01*
X686980Y88730D01*
X686881Y88749D01*
X686789Y88788D01*
X685762Y88992D01*
X685661D01*
X685563Y89012D01*
D02*
G37*
G36*
X102886D02*
X101839D01*
X101740Y88992D01*
X101640D01*
X100613Y88788D01*
X100520Y88749D01*
X100422Y88730D01*
X99454Y88329D01*
X99371Y88273D01*
X99278Y88235D01*
X98408Y87653D01*
X98337Y87582D01*
X98253Y87527D01*
X97513Y86786D01*
X97457Y86703D01*
X97386Y86632D01*
X96804Y85761D01*
X96766Y85668D01*
X96710Y85585D01*
X96310Y84618D01*
X96290Y84519D01*
X96251Y84426D01*
X96047Y83399D01*
Y83299D01*
X96028Y83201D01*
Y82154D01*
X96047Y82055D01*
Y81955D01*
X96251Y80928D01*
X96290Y80835D01*
X96310Y80737D01*
X96710Y79769D01*
X96766Y79686D01*
X96804Y79593D01*
X97386Y78723D01*
X97457Y78652D01*
X97513Y78568D01*
X98253Y77828D01*
X98337Y77772D01*
X98408Y77701D01*
X99278Y77119D01*
X99371Y77081D01*
X99454Y77025D01*
X100422Y76625D01*
X100520Y76605D01*
X100613Y76566D01*
X101640Y76362D01*
X101740D01*
X101839Y76343D01*
X102886D01*
X102984Y76362D01*
X103085D01*
X104111Y76566D01*
X104204Y76605D01*
X104303Y76625D01*
X105270Y77025D01*
X105353Y77081D01*
X105446Y77119D01*
X106317Y77701D01*
X106388Y77772D01*
X106471Y77828D01*
X107212Y78568D01*
X107267Y78652D01*
X107338Y78723D01*
X107920Y79593D01*
X107958Y79686D01*
X108014Y79769D01*
X108415Y80737D01*
X108434Y80835D01*
X108473Y80928D01*
X108677Y81955D01*
Y82055D01*
X108697Y82154D01*
Y83201D01*
X108677Y83299D01*
Y83400D01*
X108473Y84426D01*
X108434Y84519D01*
X108415Y84618D01*
X108014Y85585D01*
X107958Y85668D01*
X107920Y85761D01*
X107338Y86632D01*
X107267Y86703D01*
X107212Y86786D01*
X106471Y87527D01*
X106388Y87582D01*
X106317Y87653D01*
X105446Y88235D01*
X105353Y88273D01*
X105270Y88329D01*
X104303Y88730D01*
X104204Y88749D01*
X104111Y88788D01*
X103085Y88992D01*
X102984D01*
X102886Y89012D01*
D02*
G37*
%LPD*%
G36*
X521485Y118876D02*
X520327Y117718D01*
X516836Y121209D01*
X514308Y118681D01*
X512443Y116816D01*
X510578Y114951D01*
X508713Y113085D01*
X512204Y109594D01*
X511046Y108436D01*
X502137Y117345D01*
Y117345D01*
X503295Y118503D01*
X506786Y115012D01*
X508651Y116877D01*
X510517Y118742D01*
X512382Y120607D01*
X514910Y123135D01*
X511418Y126626D01*
X512577Y127784D01*
X521485Y118876D01*
D02*
G37*
G36*
X678965D02*
X677807Y117718D01*
X674316Y121209D01*
X671789Y118681D01*
X669923Y116816D01*
X668058Y114951D01*
X666193Y113085D01*
X669684Y109594D01*
X668526Y108436D01*
X659617Y117345D01*
Y117345D01*
X660775Y118503D01*
X664266Y115012D01*
X666132Y116877D01*
X667997Y118742D01*
X669862Y120607D01*
X672390Y123135D01*
X668899Y126626D01*
X670057Y127784D01*
X678965Y118876D01*
D02*
G37*
G36*
X364005D02*
X362847Y117718D01*
X359356Y121209D01*
X356828Y118681D01*
X354963Y116816D01*
X353097Y114951D01*
X351232Y113085D01*
X354723Y109594D01*
X353565Y108436D01*
X344657Y117345D01*
Y117345D01*
X345815Y118503D01*
X349306Y115012D01*
X351171Y116877D01*
X353036Y118742D01*
X354901Y120607D01*
X357429Y123135D01*
X353938Y126626D01*
X355096Y127784D01*
X364005Y118876D01*
D02*
G37*
G36*
X206524D02*
X205366Y117718D01*
X201875Y121209D01*
X199348Y118681D01*
X197482Y116816D01*
X195617Y114951D01*
X193752Y113085D01*
X197243Y109594D01*
X196085Y108436D01*
X187176Y117345D01*
Y117345D01*
X188335Y118503D01*
X191825Y115012D01*
X193691Y116877D01*
X195556Y118742D01*
X197421Y120607D01*
X199949Y123135D01*
X196458Y126626D01*
X197616Y127784D01*
X206524Y118876D01*
D02*
G37*
D11*
X344740Y114644D02*
D03*
X346605Y116509D02*
D03*
X348471Y118375D02*
D03*
X350336Y120240D02*
D03*
X352201Y122105D02*
D03*
X354066Y123970D02*
D03*
X355931Y125836D02*
D03*
X357797Y127701D02*
D03*
X350865Y108520D02*
D03*
X352730Y110385D02*
D03*
X354595Y112250D02*
D03*
X356460Y114115D02*
D03*
X358326Y115981D02*
D03*
X360191Y117846D02*
D03*
X362056Y119711D02*
D03*
X363921Y121576D02*
D03*
X187260Y114644D02*
D03*
X189125Y116509D02*
D03*
X190990Y118375D02*
D03*
X192856Y120240D02*
D03*
X194721Y122105D02*
D03*
X196586Y123970D02*
D03*
X198451Y125836D02*
D03*
X200316Y127701D02*
D03*
X193385Y108520D02*
D03*
X195250Y110385D02*
D03*
X197115Y112250D02*
D03*
X198980Y114115D02*
D03*
X200845Y115981D02*
D03*
X202711Y117846D02*
D03*
X204576Y119711D02*
D03*
X206441Y121576D02*
D03*
X659701Y114644D02*
D03*
X661566Y116509D02*
D03*
X663431Y118375D02*
D03*
X665297Y120240D02*
D03*
X667162Y122105D02*
D03*
X669027Y123970D02*
D03*
X670892Y125836D02*
D03*
X672757Y127701D02*
D03*
X665825Y108520D02*
D03*
X667691Y110385D02*
D03*
X669556Y112250D02*
D03*
X671421Y114115D02*
D03*
X673286Y115981D02*
D03*
X675151Y117846D02*
D03*
X677017Y119711D02*
D03*
X678882Y121576D02*
D03*
X502220Y114644D02*
D03*
X504086Y116509D02*
D03*
X505951Y118375D02*
D03*
X507816Y120240D02*
D03*
X509681Y122105D02*
D03*
X511547Y123970D02*
D03*
X513412Y125836D02*
D03*
X515277Y127701D02*
D03*
X508345Y108520D02*
D03*
X510210Y110385D02*
D03*
X512076Y112250D02*
D03*
X513941Y114115D02*
D03*
X515806Y115981D02*
D03*
X517671Y117846D02*
D03*
X519536Y119711D02*
D03*
X521402Y121576D02*
D03*
D17*
X658661Y119311D02*
Y124193D01*
X501181Y119311D02*
Y124193D01*
X343701Y119311D02*
Y124193D01*
X186221Y119311D02*
Y124193D01*
X658765Y119311D02*
X661566Y116509D01*
X501284Y119311D02*
X504086Y116509D01*
X343804Y119311D02*
X346605Y116509D01*
X186324Y119311D02*
X189125Y116509D01*
X669556Y112250D02*
X672357Y109449D01*
X512076Y112250D02*
X514877Y109449D01*
X354595Y112250D02*
X357397Y109449D01*
X197115Y112250D02*
X199916Y109449D01*
D18*
X186221Y124193D02*
X186240Y124213D01*
D19*
X109370Y106732D02*
D03*
Y129488D02*
D03*
D20*
X111299Y101083D02*
D03*
Y135138D02*
D03*
D21*
X94882Y101083D02*
D03*
Y135138D02*
D03*
D22*
X344072Y107852D02*
D03*
X364589Y128369D02*
D03*
X186592Y107852D02*
D03*
X207109Y128369D02*
D03*
X659033Y107852D02*
D03*
X679550Y128369D02*
D03*
X501552Y107852D02*
D03*
X522070Y128369D02*
D03*
D23*
X658681Y124213D02*
D03*
X501201D02*
D03*
X343720D02*
D03*
X186240D02*
D03*
X633465Y98819D02*
D03*
X638681Y135827D02*
D03*
X481201D02*
D03*
X475984Y98819D02*
D03*
X658681Y119311D02*
D03*
X501201D02*
D03*
X323721Y135827D02*
D03*
X343720Y119311D02*
D03*
X318504Y98819D02*
D03*
X186240Y119311D02*
D03*
X166240Y135827D02*
D03*
X672441Y109449D02*
D03*
X514961D02*
D03*
X357480D02*
D03*
X200000D02*
D03*
X161024Y98819D02*
D03*
M02*
