0
SECTION
2
HEADER
9
$INSUNITS
70
4
9
$ACADVER
1
AC1014
9
$HANDSEED
5
FFFF
0
ENDSEC
0
SECTION
2
TABLES
0
TABLE
2
VPORT
5
8
100
AcDbSymbolTable
0
ENDTAB
0
TABLE
2
LTYPE
5
5
100
AcDbSymbolTable
0
LTYPE
5
14
100
AcDbSymbolTableRecord
100
AcDbLinetypeTableRecord
2
BYBLOCK
70
0
0
LTYPE
5
15
100
AcDbSymbolTableRecord
100
AcDbLinetypeTableRecord
2
BYLAYER
70
0
0
LTYPE
5
16
100
AcDbSymbolTableRecord
100
AcDbLinetypeTableRecord
2
DASHED
70
0
3
Dashed __ __ __ __ __ __ __ __ __ __ __ __ __ _
72
65
73
2
40
0.75
49
0.5
74
0
49
-0.25
74
0
0
ENDTAB
0
TABLE
2
LAYER
5
2
100
AcDbSymbolTable
70
2
0
LAYER
5
50
100
AcDbSymbolTableRecord
100
AcDbLayerTableRecord
2
0
70
0
62
7
6
CONTINUOUS
0
ENDTAB
0
TABLE
2
STYLE
5
3
100
AcDbSymbolTable
70
1
0
STYLE
5
11
100
AcDbSymbolTableRecord
100
AcDbTextStyleTableRecord
2
STANDARD
70
0
0
ENDTAB
0
TABLE
2
VIEW
5
6
100
AcDbSymbolTable
70
0
0
ENDTAB
0
TABLE
2
UCS
5
7
100
AcDbSymbolTable
70
0
0
ENDTAB
0
TABLE
2
APPID
5
9
100
AcDbSymbolTable
70
2
0
APPID
5
12
100
AcDbSymbolTableRecord
100
AcDbRegAppTableRecord
2
ACAD
70
0
0
ENDTAB
0
TABLE
2
DIMSTYLE
5
A
100
AcDbSymbolTable
70
1
0
ENDTAB
0
TABLE
2
BLOCK_RECORD
5
1
100
AcDbSymbolTable
70
1
0
BLOCK_RECORD
5
1F
100
AcDbSymbolTableRecord
100
AcDbBlockTableRecord
2
*MODEL_SPACE
0
BLOCK_RECORD
5
1B
100
AcDbSymbolTableRecord
100
AcDbBlockTableRecord
2
*PAPER_SPACE
0
ENDTAB
0
ENDSEC
0
SECTION
2
BLOCKS
0
BLOCK
5
20
100
AcDbEntity
100
AcDbBlockBegin
2
*MODEL_SPACE
0
ENDBLK
5
21
100
AcDbEntity
100
AcDbBlockEnd
0
BLOCK
5
1C
100
AcDbEntity
100
AcDbBlockBegin
2
*PAPER_SPACE
0
ENDBLK
5
1D
100
AcDbEntity
100
AcDbBlockEnd
0
ENDSEC
0
SECTION
2
ENTITIES
0
LWPOLYLINE
5
100
100
AcDbEntity
8
0
100
AcDbPolyline
90
8
70
1
43
0.0
10
-77.999999999997783
20
9.0000000000004015
10
-77.999999999997669
20
-8.9999999999996021
42
0.4142135623730952
10
-73.999999999997669
20
-12.999999999999572
10
74.000000000002188
20
-12.999999999999574
42
0.4142135623730962
10
78.000000000002188
20
-8.9999999999995755
10
78.000000000002188
20
9.0000000000004281
42
0.4142135623730952
10
74.000000000002188
20
13.000000000000425
10
-73.999999999997769
20
13.000000000000426
42
0.41421356237309814
0
CIRCLE
5
101
100
AcDbEntity
8
0
100
AcDbCircle
10
-73.999999999997783
20
9.0000000000004263
30
0
40
1.3500000000000001
210
0
220
-0
230
1
0
CIRCLE
5
102
100
AcDbEntity
8
0
100
AcDbCircle
10
-73.999999999997684
20
-8.999999999999595
30
0
40
1.3500000000000001
210
0
220
-0
230
1
0
CIRCLE
5
103
100
AcDbEntity
8
0
100
AcDbCircle
10
73.999999999994657
20
9.0000000000261089
30
0
40
1.3500000000000001
210
0
220
-0
230
1
0
CIRCLE
5
104
100
AcDbEntity
8
0
100
AcDbCircle
10
74.00000000000081
20
-8.9999999999739106
30
0
40
1.3500000000000001
210
0
220
-0
230
1
0
LINE
5
105
100
AcDbEntity
8
0
100
AcDbLine
10
-48.232233047033631
20
1.7677669529663587
30
0
11
-51.767766952966355
21
-1.7677669529663604
31
0
0
LINE
5
106
100
AcDbEntity
8
0
100
AcDbLine
10
-51.060660171779816
20
1.0606601717798254
30
0
11
-48.939339828220163
21
-1.0606601717798121
31
0
0
LINE
5
107
100
AcDbEntity
8
0
100
AcDbLine
10
-11.060660171779819
20
1.0606601717798254
30
0
11
-8.939339828220163
21
-1.0606601717798121
31
0
0
LINE
5
108
100
AcDbEntity
8
0
100
AcDbLine
10
-8.2322330470336347
20
1.7677669529663587
30
0
11
-11.767766952966356
21
-1.7677669529663604
31
0
0
LINE
5
109
100
AcDbEntity
8
0
100
AcDbLine
10
28.939339828220181
20
1.0606601717798254
30
0
11
31.060660171779837
21
-1.0606601717798121
31
0
0
LINE
5
110
100
AcDbEntity
8
0
100
AcDbLine
10
31.767766952966365
20
1.7677669529663587
30
0
11
28.232233047033645
21
-1.7677669529663604
31
0
0
LINE
5
111
100
AcDbEntity
8
0
100
AcDbLine
10
68.939339828220184
20
1.0606601717798254
30
0
11
71.06066017177983
21
-1.0606601717798121
31
0
0
LINE
5
112
100
AcDbEntity
8
0
100
AcDbLine
10
71.767766952966369
20
1.7677669529663587
30
0
11
68.232233047033645
21
-1.7677669529663604
31
0
0
LINE
5
113
100
AcDbEntity
8
0
100
AcDbLine
10
-77.999999999997726
20
3.9968028886505635e-13
30
0
11
-67.999999999997726
21
4.7084186313615976e-13
31
0
0
ENDSEC
0
SECTION
2
OBJECTS
0
DICTIONARY
5
C
100
AcDbDictionary
3
ACAD_GROUP
350
D
3
ACAD_MLINESTYLE
350
17
0
DICTIONARY
5
D
100
AcDbDictionary
0
DICTIONARY
5
1A
330
C
100
AcDbDictionary
0
DICTIONARY
5
17
100
AcDbDictionary
0
ENDSEC
0
EOF
